<?xml version="1.0" encoding="UTF-8"?>
<svg width="720px" height="704px" viewBox="0 0 720 704" version="1.1" xmlns="http://www.w3.org/2000/svg" xmlns:xlink="http://www.w3.org/1999/xlink">
    <title>lightmode/contact</title>
    <defs>
        <rect id="path-1" x="0" y="0" width="720" height="704"></rect>
        <circle id="path-3" cx="349.5" cy="349.5" r="349.5"></circle>
    </defs>
    <g id="Design" stroke="none" stroke-width="1" fill="none" fill-rule="evenodd">
        <g id="1.3-Contact" transform="translate(-960.000000, -192.000000)">
            <g id="lightmode/contact" transform="translate(960.000000, 192.000000)">
                <mask id="mask-2" fill="white">
                    <use xlink:href="#path-1"></use>
                </mask>
                <g id="Mask"></g>
                <g id="illustration" mask="url(#mask-2)">
                    <g transform="translate(20.614287, 0.000000)">
                        <mask id="mask-4" fill="white">
                            <use xlink:href="#path-3"></use>
                        </mask>
                        <use id="Mask" stroke="none" fill="#CBE9EE" fill-rule="evenodd" xlink:href="#path-3"></use>
                        <g id="illustration" stroke="none" stroke-width="1" fill="none" fill-rule="evenodd" mask="url(#mask-4)">
                            <g transform="translate(349.000000, 410.500000) scale(-1, 1) translate(-349.000000, -410.500000) translate(111.000000, 61.000000)" id="Group">
                                <g transform="translate(0.000000, 272.000000)" id="body/Macbook">
                                    <path d="M229.391732,1.84833329 C243.756109,-9.10162442 279.818637,-14.0258141 295.149561,-3.48246753 C310.291947,7.10515184 311.942723,24.226782 318.998928,39.9774313 C325.656527,36.8346414 336.650843,41.3356389 338.581028,47.5198572 C340.974994,50.4366225 341.082512,58.6313875 342.733383,62.5524475 C414.565158,73.9987272 425.470563,130.061346 434.116539,193.70823 C445.554505,258.293582 471.519781,322.737959 460.247659,389.197335 C461.716392,391.324762 462.874387,393.39277 463.945096,395.848748 C466.510725,400.218944 463.206074,406.40491 458.031175,406.165487 C451.332842,405.576542 444.700847,404.77264 437.971091,404.521567 C419.315302,403.872974 400.642475,403.950305 381.979603,404.18767 L379.43473,404.220977 C285.379341,405.393043 191.329189,407.702804 97.2697271,408.315355 C93.857424,408.320294 92.1867687,405.256729 92.642402,402.234524 C93.5600694,396.14992 94.4113995,390.062403 95.2999716,383.974886 C73.0524998,389.85735 49.401468,391.337577 27.2168421,384.593541 C25.6648958,383.010786 30.8328127,383.868864 31.6527198,383.628276 C11.2359276,369.661939 17.3331501,340.239717 19.1417174,319.048167 C30.3876538,246.434283 34.3521868,166.091874 77.8026073,104.129105 C96.5999521,78.8423169 124.15849,58.8216675 155.825292,54.3169049 L156.703824,54.196488 C165.963167,52.960549 176.282621,52.5624184 184.378309,47.5198572 C193.483533,40.2432018 197.363617,26.7978689 206.942696,26.6720027 C210.105756,26.6304411 214.408666,30.6362737 219.039023,33.35604 C219.384689,27.3730073 222.605526,22.3238664 223.31665,17.6849077 L223.374215,17.2881917 C224.116257,11.8798068 223.100004,7.01398325 229.391732,1.84833329 Z M383.764863,195.626657 C363.57808,181.587792 311.43166,188.641769 310.237903,189.427889 C307.609428,191.158608 306.477546,191.31167 305.055947,193.5591 C303.652387,193.745512 302.249991,193.938914 300.848759,194.138142 C298.037566,195.057386 300.120793,198.518824 303.367835,197.283845 C301.414809,205.715666 307.162378,211.712122 309.45051,220.047888 C310.19345,222.754452 309.477324,227.622251 309.45051,230.387704 C309.672405,233.913746 313.566647,238.078726 312.91761,241.616252 C310.610172,254.192767 298.088671,266.460943 303.367835,278.657455 C306.865096,285.545961 317.383649,289.058553 324.377008,291.400354 C338.865913,296.967082 364.111493,291.19075 372.529943,278.657455 C377.020219,271.972383 382.222411,255.109273 384.899765,249.878669 L385.493189,241.581247 C386.956651,220.955447 388.258412,198.751689 383.764863,195.626657 Z" id="ðŸŽ¨-Background" fill="#FFFFFF"></path>
                                    <path d="M203.425583,25.4557244 C204.81925,24.2201623 206.881529,25.7726248 205.995867,27.4415948 C204.005744,31.1925539 201.964414,34.7466153 199.293461,38.0624188 C197.674013,40.0727558 195.939348,41.9741583 194.181407,43.8545894 C198.692933,47.7616685 202.562033,52.6124584 206.215827,57.1585812 C210.887959,62.9728881 215.305216,69.0336085 220.549945,74.3539236 C225.722381,79.6009506 231.441634,83.2688024 238.356909,85.7146547 L239.753579,86.2002892 C246.700506,88.6417497 254.125326,91.938857 258.041055,98.5234052 C258.813245,99.8218813 257.25839,101.42619 255.951426,100.61588 C249.147187,96.3983083 241.152365,95.5501337 233.745852,92.7632742 C226.591304,90.0713683 220.354424,85.9283615 214.843764,80.6406685 C209.342414,75.3617135 204.723236,69.3557517 199.905045,63.4767831 C195.14039,57.6636412 190.010297,52.6986739 184.374527,47.7803097 C175.677619,53.6373667 165.750311,56.185937 155.655932,58.6890715 L154.554116,58.9621173 C144.447554,61.4670286 134.395109,64.376221 124.913514,68.7382619 C116.553837,72.5835921 108.33149,77.1757353 101.522013,83.4333533 C94.2935633,90.074281 88.6676856,98.5560273 83.5183897,106.850779 C72.0001208,125.408094 63.9023017,145.738653 56.7733579,166.316209 C49.3586978,187.719802 43.156732,209.552143 38.1500034,231.643714 C35.603578,242.880862 33.5354802,254.197819 31.8357296,265.594 C31.0175682,271.082668 30.2907663,276.582988 29.6524142,282.09554 C28.971001,287.982082 28.814468,294.038142 27.010556,299.698076 C26.2372015,302.123763 24.411177,303.130387 22.5834068,303.044754 L22.2121641,307.692686 C21.71988,313.889692 21.2609648,320.088637 21.1059447,326.324119 C20.8487924,336.692121 20.9653894,347.030277 21.710365,357.376312 L21.8158714,358.787187 C22.4012699,366.338038 23.7093971,374.822115 29.3812455,380.350978 C35.2550156,386.077322 44.2879594,387.877945 52.2048054,387.981055 C70.6436954,388.221643 88.3930254,379.499891 104.7097,371.848261 C121.514013,363.968276 137.859201,355.221475 153.812766,345.735434 C161.937353,340.90445 169.974072,335.912686 177.908375,330.775288 C181.801915,328.253483 185.668106,325.689153 189.505201,323.083462 C191.703065,321.591001 193.78571,319.954653 196.023143,318.630546 C194.92683,317.608775 194.437446,316.002136 195.355695,314.599386 C188.887798,308.979064 186.195896,298.949516 185.881084,290.834186 C185.626791,284.283551 186.589847,277.751558 187.349818,271.262673 C187.733294,267.990559 188.206967,264.724271 188.698678,261.466722 C188.893035,260.179896 189.041422,258.80336 189.268365,257.444883 C171.803588,267.052674 153.849426,275.608985 135.419847,283.210517 C125.973167,287.107111 116.405451,290.610491 106.705642,293.820855 L104.739642,294.468413 C95.5490499,297.480064 86.1385622,300.324964 76.6373384,302.046868 C76.1293335,302.138909 75.7167614,301.388018 76.2590988,301.148595 C85.5184044,297.058599 95.0983408,293.608812 104.496722,289.842124 L106.041104,289.212401 L106.041104,289.212401 C105.863622,289.202498 105.679739,289.178031 105.48771,289.132011 C99.9758861,287.80033 94.5071232,285.74805 89.1012064,284.020244 C84.0840034,282.416518 78.4470694,281.409311 73.7574802,278.988285 C73.3966978,278.801873 73.5986196,278.299726 73.9500914,278.275842 C79.2210059,277.910008 84.9428983,279.447907 90.1108152,280.352588 L92.0522296,280.693025 C95.3044976,281.267107 98.6289651,281.884273 101.865338,282.689146 C101.982302,281.603879 102.588067,280.513951 103.449871,279.874907 C112.933211,272.844262 111.970155,258.644327 112.984419,248.173216 L113.736528,240.399238 C115.059449,226.793938 116.458986,213.190463 118.585275,199.68687 C118.698747,198.965689 119.813099,199.17249 119.817754,199.853476 C119.927421,216.592468 118.665173,233.254441 118.032496,249.967311 L117.934527,252.709002 C117.584756,263.021541 117.310628,273.729909 110.822634,281.665045 C111.729827,281.134353 112.956488,281.134353 113.691436,282.009325 C114.594556,283.085271 115.115945,284.293454 115.099651,285.478918 C120.962365,283.01828 126.799475,280.493562 132.608072,277.917581 C151.283216,269.635063 169.566737,260.366308 187.366693,250.337342 C189.282331,249.2579 191.103118,250.106075 192.050463,251.529214 L192.18719,251.509581 C192.210035,251.506495 192.233182,251.504165 192.25704,251.503583 L192.392624,251.497757 C192.397862,251.497757 192.403099,251.49834 192.407754,251.49834 C194.913446,250.120056 198.326913,251.101632 200.47706,253.111969 C200.540488,253.172553 200.594605,253.237797 200.65105,253.301876 C203.373211,252.078547 205.914981,250.427053 208.221661,248.333996 C212.942091,244.05118 216.940375,238.755332 220.425999,233.44492 C226.845016,223.664115 232.297485,212.787557 240.968483,204.736306 C248.013632,198.194992 256.748057,194.122472 265.911348,191.565715 C265.872942,191.297748 265.975358,191.012304 266.160404,190.822397 C266.631167,190.339473 266.966928,190.172285 267.575021,190.465302 C267.623319,190.489186 267.652414,190.521808 267.672199,190.55676 L268.566367,189.027323 C269.054439,188.197439 269.555612,187.361501 269.729241,187.141925 C270.76969,185.830633 271.8404,184.529244 272.927402,183.255235 C274.770302,181.098098 276.870404,178.969506 279.302194,177.47355 C284.626644,174.199106 290.224008,176.052158 295.698008,177.841714 C299.005568,178.923486 302.302072,180.04021 305.603813,181.138293 L305.944403,181.249634 C308.406371,182.041506 311.287299,182.734148 312.388267,185.345379 C312.824116,186.378801 312.891617,187.451252 312.688532,188.491664 C336.071886,182.538714 362.043563,185.273727 384.861886,192.261847 C385.737656,192.529814 386.612263,193.250996 386.796727,194.198202 C389.411236,207.620449 390.575632,221.385228 389.392615,235.036412 C388.37195,246.819981 385.763842,258.367622 380.849055,269.155634 L380.56963,269.76474 C375.950722,279.762541 368.630111,292.087096 357.449989,295.220693 C350.699285,297.112775 343.232835,295.997216 336.34771,295.650606 C329.65636,295.313317 322.816624,295.264383 316.188703,294.211156 C310.285837,293.27327 305.113847,290.624472 301.465871,285.819703 C298.318918,281.674366 296.661646,276.664543 295.304057,271.680935 C294.68258,271.878997 294.065177,272.089293 293.457666,272.327551 C290.893201,273.330098 288.72036,274.948387 286.755842,276.852703 C282.607426,280.874542 279.38948,285.759119 275.049035,289.596876 C271.119999,293.07113 266.642805,295.772939 261.840326,297.850267 C251.888961,302.15473 241.213444,303.874903 230.687123,306.156177 L229.952981,306.316285 C222.028571,308.056907 213.940062,310.194237 206.945539,314.324428 C206.808791,315.540184 206.255397,316.684288 205.368571,317.433431 C206.602214,318.593263 207.124766,320.430004 206.040673,322.15315 C203.012503,326.964018 197.796505,329.701311 193.113875,332.777876 L192.80927,332.979027 C188.202893,336.036184 183.556365,339.032757 178.872013,341.968164 C169.349104,347.936843 159.627182,353.576971 149.76793,358.968939 C133.91038,367.641175 117.712414,375.821749 101.221167,383.242112 C102.210991,388.117077 101.849313,393.143846 102.593289,398.051358 L102.707358,398.751591 C103.025176,400.57272 102.595868,402.096634 101.342692,403.286499 L101.210111,403.408396 L101.212439,403.392085 L101.094893,403.499854 L101.055605,403.532797 L101.068708,403.522573 C100.924249,403.654955 100.775208,403.778161 100.623303,403.883837 L100.429774,404.008409 L100.429774,404.008409 C99.222769,404.742709 97.6688009,404.734253 96.4329775,404.086037 L96.2918323,404.008409 L96.0544142,403.872095 C94.4215829,402.93188 93.2955927,400.602312 93.9729325,398.751591 C95.6377687,394.203138 96.2668103,389.348853 97.8042088,384.770108 L96.5845315,385.315945 L96.5845315,385.315945 L94.9769766,386.017362 C77.590797,393.543594 58.2782686,399.88148 39.3347663,394.750723 C30.9646147,392.482905 23.1414557,387.686291 18.9534704,379.868055 C14.8324044,372.175064 14.2499154,363.242434 14.0311183,354.684958 C13.7611134,344.12297 14.3267271,333.399619 15.718067,322.928508 C16.6520279,315.89961 17.7815095,308.737894 19.5237394,301.781813 C18.6276024,300.990145 17.9688836,299.854779 17.7948934,298.448533 C16.9726587,291.804693 18.4117149,284.897546 19.2927222,278.288075 C20.1533628,271.834724 21.104199,265.39419 22.1795633,258.973461 C24.3506587,246.006759 26.8732259,233.067435 29.810111,220.252775 C35.0368005,197.445849 41.9388005,175.044368 50.2484337,153.17824 L50.9761315,151.273562 C58.6546707,131.287432 67.5452639,111.727299 79.9251134,94.1695198 C85.8471819,85.7693288 92.1073384,78.1532333 100.475162,72.1000859 C108.314615,66.4285007 117.157275,62.3449127 126.282742,59.2236767 C135.418101,56.1001105 144.807754,54.0070532 154.36325,52.7050819 C164.067715,51.3827217 174.311025,50.5718295 183.363754,46.5872729 C182.218561,44.5320805 183.201402,41.7574543 185.128678,40.4828622 C191.614615,36.1930559 197.612331,30.6123465 203.425583,25.4557244 Z M411.05335,211.996645 C411.3251,211.583626 411.970435,211.844603 411.851144,212.333352 C408.696626,225.270928 405.735301,238.234718 403.801623,251.419289 C400.311009,275.215769 400.953095,299.323002 401.238452,323.295487 L401.25287,324.535321 C401.399511,337.447847 401.603178,350.361539 402.029716,363.268823 C402.245022,369.792078 402.670978,376.379412 402.439379,382.906162 C402.313105,386.446826 401.370416,389.795834 401.036401,393.293971 C400.743702,396.352876 401.004396,399.458966 401.150455,402.521948 C401.248215,404.558499 398.245575,404.471701 398.041325,402.521948 L397.780166,400.000052 C397.440883,396.808527 397.021533,393.636504 395.976719,390.581677 C394.720381,386.907613 394.117526,383.299375 393.681677,379.441812 C393.014084,373.530622 392.717196,367.560208 392.459539,361.607437 L392.283355,357.490051 C391.207422,332.613233 391.245133,307.619706 392.986993,282.768945 L393.114318,280.994137 C394.83909,257.503894 397.831839,232.123317 411.05335,211.996645 Z M343.811134,63.9466578 C342.987154,63.607621 343.275779,62.3604082 344.18821,62.5776947 L345.847548,62.9739353 C358.006248,65.8893665 369.944278,69.0481162 381.292933,74.4731108 C392.64885,79.9011954 402.263119,88.0048748 409.902396,97.9697615 C424.752665,117.339717 430.923789,140.880058 435.795515,164.398262 C441.209579,190.531478 446.138914,216.760229 451.600112,242.885289 L452.614244,247.751655 C457.667532,272.084018 462.438568,296.430172 465.954014,321.050756 L466.206542,322.836428 C469.751629,348.154385 471.883989,374.349029 468.015711,399.732933 C467.250503,404.754989 458.902464,403.504281 459.228914,398.542809 C460.171603,384.198988 460.846616,369.930314 460.194298,355.554453 C459.541398,341.17568 458.194283,326.85982 456.186122,312.606875 C454.496176,300.612253 451.976986,288.76694 449.747611,276.867661 L449.398176,274.98835 C447.531418,264.867576 445.606934,254.756868 443.686697,244.64549 L440.817103,229.506546 C436.516213,206.838241 432.131188,184.150071 427.176308,161.624219 L426.882265,160.298725 C422.033335,138.627086 414.884626,115.925956 400.339916,98.7165746 C385.579843,81.2515173 364.450215,72.4557834 343.811134,63.9466578 Z M290.178503,293.814622 C290.533467,293.022954 291.775256,293.109752 292.156987,293.814622 C293.652702,296.577287 293.818924,300.103673 294.101673,303.222451 L294.131398,303.543581 C294.491017,307.349299 294.80932,311.167832 295.004259,314.985783 C295.37377,322.231967 295.550669,329.468831 295.527975,336.724336 C295.504699,344.159845 295.355149,351.586615 294.954797,359.011056 L294.846151,361.00046 C294.480666,367.452439 293.867673,374.649034 290.805217,380.289404 C289.692029,382.340519 286.664366,381.737592 286.019613,379.663759 C283.90729,372.873701 284.991965,364.823033 285.533721,357.8687 L285.954403,352.442281 C286.370976,347.015261 286.768237,341.586194 287.083339,336.152866 C287.515114,328.719105 287.871242,321.278936 288.213985,313.84168 C288.325323,311.426091 288.445713,309.009725 288.572914,306.594136 L288.768542,302.971529 C288.93555,299.941169 288.921584,296.616045 290.178503,293.814622 Z M52.6744155,303.437857 L53.6095059,302.5336 C56.4800528,299.72141 60.1075498,295.39027 64.3511267,295.658878 C66.0433125,295.766065 67.1215863,297.17231 66.7706963,298.83895 C66.0212,302.40175 62.3906817,304.250724 59.7773369,306.425919 C56.914354,308.807915 54.2160509,311.354186 51.5229848,313.924924 C49.1338036,316.204329 46.8361183,318.548632 44.5935554,320.966018 L43.7551071,321.875979 C42.9512517,322.754123 37.2269673,327.937365 37.8458903,329.282167 L37.8795912,329.342362 C38.0518357,329.599844 37.7649555,329.954026 37.4792391,329.863733 C35.0072978,329.081968 35.1615032,326.960949 36.096046,324.811968 C37.8918112,320.682942 41.0364372,316.863243 43.7824567,313.337144 C46.521057,309.819527 49.485203,306.544085 52.6744155,303.437857 L52.6744155,303.437857 Z M299.135915,199.890176 C297.224351,195.367355 290.182693,195.462308 286.184991,195.732606 C276.117999,196.413592 265.225862,198.963359 256.268566,203.673757 C246.982116,208.557178 240.726791,216.381823 235.129661,225.034098 L234.867769,225.440271 C229.41239,233.929591 224.158351,243.978945 215.615955,249.815971 C211.265035,252.789825 206.184404,255.505033 200.905343,256.681176 C200.542815,257.319055 199.955671,257.824115 199.185808,258.007614 L198.827929,258.089598 C197.324394,258.421929 194.988557,258.789693 192.97104,258.569763 C192.984424,259.557746 192.97395,260.538157 192.998972,261.474295 C193.069964,264.15688 193.100223,266.851116 193.100223,269.535449 C193.101387,275.159849 192.799378,280.795317 193.033886,286.419134 C193.241627,291.393422 193.943407,296.590821 196.329226,301.03733 C198.079021,304.29954 200.38861,306.458424 203.176527,308.519442 C210.034884,304.335075 217.789959,301.784726 225.660835,299.867012 C235.179671,297.54793 244.926033,296.000128 254.2284,292.855591 C258.705593,291.341576 263.009959,289.360366 266.909901,286.669625 C271.049006,283.812278 274.210507,279.946559 277.463368,276.165308 L277.971807,275.577832 C281.291509,271.76642 284.913794,268.119357 289.605441,266.05304 C293.645622,264.272805 298.970654,263.955905 302.503412,261.201667 C304.350385,259.760469 304.505172,257.66916 304.699529,255.527752 C302.437074,255.851643 300.041945,255.332602 297.787055,255.06813 L296.618767,254.930853 C294.486536,254.677243 292.40334,254.39848 290.304311,253.855286 C289.914434,253.754508 289.914434,253.166145 290.304311,253.065366 C292.784981,252.423992 295.243539,252.150782 297.787055,251.852523 L298.384472,251.777939 C300.6855,251.475842 303.104103,251.01989 305.361157,251.526884 C305.766165,249.984325 306.350981,248.51167 307.17147,247.036685 C308.323065,244.964599 310.502307,242.615225 310.796752,240.194782 C310.88462,239.471853 310.716448,238.6196 310.376033,237.980557 L310.258697,237.762728 C310.115654,237.505465 309.946133,237.246754 309.698111,237.086362 C309.670761,237.118401 309.612571,237.155101 309.486297,237.194714 C307.749304,237.742299 306.234018,236.891211 305.429822,235.579337 C302.015774,236.003424 298.289822,235.860703 295.08817,236.002259 L291.851035,236.159001 C288.392107,236.317752 284.776034,236.387256 281.525661,235.687689 C281.071774,235.590405 280.934444,234.834271 281.388913,234.639704 C285.384869,232.928791 290.232155,232.382954 294.510336,231.725851 C296.899646,231.35827 299.306414,231.078652 301.702708,230.755344 C303.298297,230.539805 304.991646,230.183874 306.644844,230.098241 C310.789769,224.932881 308.556409,216.784347 302.787964,214.560218 C300.686698,215.484705 298.797245,214.947023 296.501622,214.749543 C294.210072,214.552645 291.912703,214.419244 289.611842,214.429147 C285.001392,214.449536 280.1157,215.663544 275.550057,215.141008 C274.807544,215.055375 274.117402,214.066226 274.855842,213.462718 C278.350763,210.607663 283.359433,209.67675 287.795675,209.06832 L288.715123,208.945139 C290.202478,208.749989 292.011045,208.465128 293.887113,208.29561 C294.311324,207.467241 295.072458,206.841014 296.215906,206.685476 C296.555739,206.638873 296.897319,206.611494 297.238316,206.582367 L297.233079,206.54858 L297.233079,206.54858 C300.021578,206.414596 299.900541,201.699538 299.135915,199.890176 Z M108.230238,288.10092 C108.18097,288.177038 108.127047,288.249531 108.069675,288.319263 L107.981182,288.421898 L108.439725,288.235486 L108.230238,288.10092 L108.230238,288.10092 Z M347.79615,189.783733 C336.059084,188.521374 324.305143,188.787593 312.533162,189.12663 C311.591637,192.209419 308.314336,194.836663 305.138869,194.935694 C307.62594,198.725101 307.882561,203.853761 306.138585,207.872688 C309.84126,209.348255 313.031275,211.998801 314.967862,215.773644 C317.653363,221.006578 317.301891,226.829623 314.647813,231.66585 C316.913177,233.718712 318.249818,237.052574 318.115979,240.194782 C317.966429,243.698745 315.880292,246.691823 314.146791,249.592859 C312.273632,252.730407 312.210786,255.492799 311.63528,259.006666 C310.79326,264.149307 307.328585,267.268213 302.870595,269.216218 L303.107589,270.149417 C304.256922,274.628022 305.686937,279.353663 308.971891,282.628562 C313.197626,286.841677 319.753203,286.802484 325.336327,287.069467 L325.605705,287.082644 C330.718108,287.338494 335.828276,287.638338 340.938892,287.92819 L344.771979,288.142862 C350.656223,288.466753 356.307123,288.505783 361.110766,284.61152 C368.953128,278.25487 374.329368,267.734825 377.73236,258.421798 C384.874688,238.874169 384.960228,217.422225 381.681764,197.063704 C370.686629,193.51605 359.278341,191.018712 347.79615,189.783733 Z M250.187762,222.214392 L250.27405,222.220703 C252.69071,222.496826 254.350891,224.4559 254.942109,226.779642 C255.801003,230.157194 255.379703,233.210856 257.446055,236.259857 C259.571761,239.395074 260.878725,241.905228 261.187717,245.77852 C261.314573,247.372343 261.256382,248.962088 261.610764,250.522123 L261.867729,251.615119 C262.140609,252.780579 262.363889,253.903137 262.228167,255.154462 C262.104221,256.295653 261.549082,257.184605 260.405634,257.550438 C256.679683,258.743475 253.802734,255.995063 252.84026,252.519062 C252.008715,249.516664 253.118994,245.938718 251.945869,243.119237 C251.295879,241.556288 250.09715,240.249074 249.41981,238.67564 C248.748871,237.116187 248.411947,235.48683 248.304294,233.791646 C248.100045,230.585359 250.932769,226.733039 249.352309,223.827924 C249.015766,223.208104 249.396908,222.195655 250.187762,222.214392 Z M200.694984,189.127388 C203.218133,188.614172 206.080534,187.438029 208.568769,188.415527 C209.8478,188.918839 210.479752,190.48004 209.39915,191.565307 C207.522982,193.448035 204.796211,193.552952 202.269182,193.996907 L202.046754,194.037014 C199.058661,194.590424 196.065331,195.115291 193.067928,195.612778 C187.428666,196.54775 181.776021,197.374371 176.10359,198.076911 C170.277536,198.798675 164.435189,199.441214 158.584695,199.92472 L156.319786,200.110747 C151.377773,200.506414 146.235463,200.804857 141.386431,200.047053 C140.681742,199.936954 140.795214,198.90994 141.386431,198.729936 C146.698661,197.120385 152.525879,196.688725 158.017918,196.007738 C163.856774,195.282479 169.685737,194.516442 175.499571,193.607684 C181.304094,192.70009 187.101052,191.726087 192.87648,190.649558 C195.486915,190.163722 198.093277,189.656332 200.694984,189.127388 Z M291.736967,183.959523 C289.52281,183.174844 287.086947,182.0121 284.687744,182.401235 C280.550385,183.072318 276.868077,187.107555 273.593104,189.765091 L275.237506,189.445118 C283.651495,187.826211 294.793834,186.082216 301.856913,191.437557 C301.874952,191.406682 301.888918,191.375808 301.909285,191.344933 C302.479554,190.478117 303.140018,189.801791 303.861001,189.060221 C303.92986,188.995171 303.996521,188.927985 304.062082,188.859699 L304.451055,188.445061 L303.561372,188.136526 C301.655766,187.462216 299.398229,186.591453 299.041351,186.464353 L299.016624,186.455696 C296.587162,185.631988 294.154791,184.8176 291.736967,183.959523 Z M222.605415,7.40737231 C222.25918,2.94921269 229.190276,2.98591255 229.533601,7.40737231 C230.282515,17.060019 228.112584,26.6212072 223.442198,35.0837297 C223.407865,35.1454787 223.370041,35.2002372 223.333963,35.258491 C226.255136,36.780079 229.209479,38.239918 232.229577,39.544802 C236.092858,41.2143546 240.028877,42.7347775 244.035308,44.0245156 C247.659425,45.1919207 252.124398,45.6527079 255.171264,48.0818894 C261.5961,53.2035592 259.182349,63.8325387 257.946378,70.72221 L257.753554,71.809827 C257.138145,75.3551671 256.693045,78.9925357 258.186124,82.3950967 C259.78055,86.0295483 263.004897,88.7255319 265.881264,91.3259794 L266.462216,91.8533049 C269.01041,94.1771855 271.922083,97.0010599 273.791127,100.151423 C275.497278,96.6200804 277.823161,93.7341895 280.2823,90.4853778 C282.03675,88.1668784 280.787978,87.4025892 279.527567,85.1376834 C278.31429,82.957828 277.721909,80.6340858 278.101312,78.1472332 C278.801347,73.5545074 282.467943,70.2369562 286.117665,67.7442782 C290.42785,64.8018812 295.238476,62.6220258 299.694139,59.884682 C308.849865,54.2608648 317.766427,47.8308157 325.799655,40.6894883 C326.021361,40.492008 326.40542,40.7506547 326.227938,41.0203696 C319.882242,50.6829194 312.441396,59.0324296 303.296726,66.119581 C299.588705,68.9933114 295.693496,71.3770618 291.772203,73.8828271 L290.644843,74.6070388 C289.070388,75.6280611 287.106545,76.9926639 286.394652,78.7309357 C285.678325,80.4791308 287.205831,81.7991608 288.028066,83.2473491 C290.639065,87.846218 289.37936,92.1371518 286.283939,96.0372382 L286.139777,96.2169644 C283.063816,100.011614 280.732696,103.540626 279.617762,108.388503 C277.222149,118.802398 280.558935,129.649866 284.051859,139.426386 L284.189806,139.811742 C286.079259,145.081376 288.08742,150.312563 289.72898,155.666666 L290.180654,157.146863 C291.668019,162.073192 292.885985,166.931988 291.217498,171.996357 C290.650139,173.718921 288.303308,174.126114 287.328613,172.504913 C283.890124,166.787889 283.032975,159.908121 280.877591,153.622541 C278.776907,147.496577 276.364902,141.481295 274.335792,135.330281 C271.723029,127.410683 269.974398,118.885829 270.923489,110.578844 C270.895557,110.530494 270.864716,110.485056 270.84144,110.433792 L270.176333,108.977377 C268.362677,105.033759 266.610959,101.589676 263.312726,98.4463355 C259.872491,95.1672318 256.138393,92.2644473 253.431361,88.2950367 C247.551402,79.6727836 251.187891,70.0813113 251.898126,60.6536158 L251.979394,59.497539 C252.10841,57.5400995 252.179113,54.8798818 250.901811,53.5251199 C249.465083,52.0000367 246.095841,51.6109016 244.189513,50.9357407 C239.263088,49.1904583 234.408237,47.1568198 229.784403,44.7148225 C225.382858,42.3904978 221.119224,39.8226724 217.149454,36.8144487 L215.137365,35.2991331 C211.962703,32.9011995 208.67076,30.2826269 206.543034,27.0184978 C206.297469,26.6427611 206.714696,26.0363396 207.159273,26.2163437 C210.711234,27.6592891 213.95653,29.9544869 217.279801,31.9514255 C217.331591,31.8296752 217.391528,31.7067598 217.459611,31.5832618 C221.571366,24.133772 223.262388,15.8803805 222.605415,7.40737231 Z M336.067638,58.4465134 C337.482836,54.5615707 343.932694,54.8615775 343.675491,59.4776048 C343.478285,63.0238521 341.974275,66.2247164 340.599091,69.4446063 L340.452308,69.7896839 C339.032455,73.1445175 337.392641,76.2942978 335.43045,79.3689308 C331.681222,85.2467344 327.28957,90.7016157 322.598817,95.8494997 C318.34624,100.51679 312.764587,103.370642 306.332768,102.896456 C303.622826,102.696646 300.887281,102.006339 298.512518,100.651356 C295.692015,99.0412228 292.628856,94.2067439 289.030342,95.3776443 C288.682362,95.4906566 288.357658,94.9803538 288.658504,94.7386007 C292.812738,91.3895925 297.527932,96.5823319 301.505267,97.8336225 C307.498328,99.7181314 313.648504,97.6343947 317.505966,92.7841873 C321.533345,87.7201887 325.240093,82.050351 328.625046,76.5366334 C330.344,73.7369581 331.91224,70.831261 333.266919,67.8364356 C334.633819,64.8136484 334.944557,61.5287194 336.067638,58.4465134 Z M326.407224,34.5377756 C326.232652,34.0012585 326.898354,33.4909557 327.369116,33.7973704 C330.098843,35.57644 332.464295,37.9269789 334.982207,39.9874141 C337.775943,42.2732913 340.590045,44.5125655 343.447791,46.71747 C347.613664,49.9324945 342.782089,55.8510757 339.114911,52.338957 C334.096544,47.5347701 328.600432,41.2526855 326.407224,34.5377756 Z M311.420149,15.7337558 C312.529118,11.4528216 319.088134,13.2181951 318.132302,17.4491091 L318.101024,17.5780696 C316.290676,24.5665967 318.86903,31.6813497 324.373228,36.2119591 L324.575904,36.3765553 C328.058036,39.1663274 323.124628,44.0433315 319.676828,41.2803561 C312.14986,35.2499277 309.018618,25.0060055 311.420149,15.7337558 Z" id="ðŸ–-Ink" fill="#000000"></path>
                                </g>
                                <g transform="translate(134.000000, 0.000000)" id="head/Short-4">
                                    <path d="M235.772682,177.469007 C234.521154,166.426917 236.140842,143.346792 236.24937,141.944592 C236.935473,133.080015 232.798889,98.0751249 224.97907,101.300478 C211.861533,90.8736857 194.390129,88.5712801 178.053016,87.4714494 C144.118334,85.186557 108.018027,90.4317686 81.8144927,113.362421 C68.8558507,125.270832 56.2399952,142.59083 57.2540722,160.624784 C45.4803053,177.718862 28.8819363,201.167322 43.5515356,221.151666 C48.5380092,227.536405 56.4631635,229.914118 62.7273503,234.74952 C75.3271376,244.953894 83.232058,259.598455 95.9514636,269.742116 C129.649289,300.14683 186.868463,306.498294 219.976529,271.915508 C245.578402,246.869257 241.438712,209.399123 236.935473,177.469007 C233.907912,156.002157 238.214284,199.01098 235.772682,177.469007 Z" id="ðŸŽ¨-Background" fill="#FFFFFF"></path>
                                    <path d="M132.72093,40.6453406 C141.796512,38.8064517 151.115698,37.6622541 160.383721,38.006681 L161.098284,38.0345476 C168.071616,38.3143877 176.902791,38.9334226 182.986047,43.0049561 C183.336047,42.6523564 183.898837,42.4713864 184.409302,42.7159878 C191.638372,46.180688 199.589535,48.6856633 207.201163,51.1748767 C214.777907,53.6518309 222.638372,55.2869825 230.579651,55.9460637 C233.567442,56.1941677 236.124419,59.433531 234.232558,62.3389755 C233.782558,63.0313317 233.344186,63.7306933 232.907558,64.4318062 C233.637791,64.3553317 234.368023,64.2765222 235.098256,64.2023829 C237.501163,63.9595328 239.901744,66.534561 239.759302,68.8836686 C239.670349,70.3612012 239.511628,71.8212206 239.276744,73.2637268 C240.19186,73.2444623 241.101744,73.382233 241.980814,73.7552647 C246.431977,75.6426069 246.122093,80.9660443 245.788953,85.01627 C245.327326,90.6368485 243.233721,96.5901783 239.346512,100.796856 C242.248837,103.823725 244.303488,107.438455 245.52907,111.731531 C246.418023,114.866399 246.912791,118.205587 246.668605,121.468886 L246.59076,122.445901 C246.288782,125.987216 245.688397,129.907901 243.151163,132.455517 C241.848837,133.769009 240.244186,134.247704 238.714535,134.095923 C239.639535,142.257087 240.232558,150.464953 240.790698,158.64363 L241.052421,162.552672 C242.297461,181.455207 243.233121,200.480847 242.988372,219.414529 C242.761047,237.108727 239.27907,254.283365 228.47093,268.65005 C218.627326,281.732431 204.494186,291.376381 188.505814,295.042483 C179.889535,297.021478 171.093023,297.161584 162.372093,295.900632 C158.144767,295.287669 153.889535,294.347792 149.877326,292.865005 C145.436047,291.218762 142.244186,288.796099 139.255814,285.165023 C137.842442,283.442889 138.522674,279.776787 141.337209,280.121214 C145.593816,280.639446 149.479603,281.26406 153.560408,282.528175 L154.144767,282.713171 C158.209302,284.020826 162.418605,284.995729 166.668023,285.410208 C175.372093,286.256681 184.208721,285.404371 192.546512,282.754035 C206.122093,278.434106 217.813953,268.807669 225.30814,256.711866 C234.203488,242.374371 235.209302,226.098744 235.080814,209.61296 C234.943115,191.522717 234.357185,173.421996 233.400634,155.350506 L233.237791,152.338868 C232.731977,143.039344 232.243605,133.733983 231.813953,124.428621 C231.680233,121.50975 231.476744,118.567528 231.109884,115.654494 C227.755814,113.681337 224.75,110.960949 222.790698,107.604247 C218.854651,109.238815 214.715116,110.418039 210.906395,111.357916 C202.084302,113.536561 192.925,114.06546 183.945349,112.70118 C181.523256,113.705856 179.052907,114.589106 176.544767,115.34918 C175.86686,115.650991 175.188953,115.947549 174.511628,116.238268 C168.464535,118.836064 162.330814,121.036893 155.947674,122.64811 L154.379553,123.040756 C151.020337,123.872238 147.371564,124.691054 143.796512,124.94818 C143.209302,125.175852 142.575581,125.368498 141.88314,125.537792 C138.627907,126.331725 135.249419,126.582748 131.912791,126.302536 C128.662209,126.028162 126.313372,122.729838 128.10407,119.641672 C129.412209,117.388304 130.732558,115.140773 132.063953,112.89908 C127.430233,114.83721 122.645349,116.448427 117.819767,117.814459 C112.947674,119.192166 108.005814,120.353877 103.057558,121.422184 C100.412209,121.988445 97.755814,122.49049 95.1162791,123.056751 C93.2267442,123.459556 90.3255814,123.669714 88.7843023,124.918991 C87.0813953,126.290861 86.5988372,129.489944 85.952907,131.463101 C85.1040698,134.02587 84.3075581,136.600314 83.580814,139.203947 C82.1337209,144.399538 80.9476744,149.67102 80.0290698,154.995041 C79.1104651,160.3249 78.4936047,165.707298 78.1505814,171.10721 C77.8081395,176.501284 77.9587209,181.930385 77.4069767,187.301108 C77.1098837,190.149926 74.0639535,191.615199 71.8139535,189.624529 C71.55,189.39102 71.2839793,189.154915 71.0205426,188.916217 L70.627907,188.556222 C68.702907,186.8049 66.8366279,184.948498 65.2965116,182.858586 C65.0174419,182.473295 64.75,182.07049 64.5,181.661849 C64.4593023,181.661849 64.4244186,181.650173 64.3837209,181.620984 L63.956681,181.298326 C59.2545588,177.784112 51.3988953,173.202551 46.8139535,179.040702 C45.3529285,180.900564 44.6048984,183.268765 43.9840604,185.553499 L42.8946918,189.642503 C42.1900646,192.311837 41.526938,194.996031 41.1389535,197.727316 C40.2610465,203.84527 40.702907,210.897263 44.8953488,215.800967 C46.5697674,217.762448 48.877907,219.163506 51.452907,219.531284 C52.8895349,219.729767 54.3081395,219.484582 55.7325581,219.303612 C57.1802326,219.122642 58.575,219.414529 60.0232558,219.274423 C62.3255814,219.046751 63.3313953,221.813841 62.4709302,223.553489 C62.005814,224.487528 61.4587209,225.293136 60.8372093,225.976152 C61.3366279,226.408145 61.8139535,226.875164 62.2732558,227.365535 C63.6337209,227.803365 64.8540698,228.743242 65.7674419,229.986681 C66.505814,230.990773 66.8889535,232.082431 66.9534884,233.232466 C67.0343023,233.518515 67.1040698,233.810402 67.1686047,234.108127 L68.4159209,236.140782 C68.6902558,236.586599 68.9636047,237.026998 69.2377907,237.458991 C72.4122093,242.47945 75.9360465,246.729326 80.3139535,250.734018 C84.5290698,254.586928 89.1040698,258.037034 93.0639535,262.170155 L93.5304242,262.660887 C97.2220886,266.566885 101.113372,271.295178 99.6686047,276.97467 C99.2965116,278.434106 97.2668605,279.4849 95.9418605,278.498321 C91.6802326,275.322589 89.5343023,270.290455 85.9186047,266.437545 C82.197093,262.46788 78.075,258.90102 74.3430233,254.94303 C70.8133721,251.206875 68.0284884,246.974512 65.9302326,242.315993 C65.0924419,243.244194 63.872093,243.903859 62.1802326,244.16072 C59.2732558,244.59855 56.5633721,242.888092 55.2965116,240.360349 C54.4819767,240.722289 53.6511628,241.049203 52.8133721,241.306064 C48.4063953,242.66042 45.6337209,237.739203 47.2965116,234.102289 C48.1854651,232.152483 49.2959302,230.459538 50.6744186,229.035129 C46.3656977,228.439679 41.9819767,226.203824 39.1505814,223.413383 C32.0465116,216.402254 31.0697674,205.865129 32.6686047,196.495552 C33.5174419,191.527633 34.9819767,186.501337 36.8837209,181.836981 C37.2145349,181.025535 37.5697674,180.208251 37.9587209,179.402642 C37.7436047,179.396804 37.5226744,179.303401 37.3831395,179.122431 C36.0982558,177.359432 34.5348837,175.91751 33.580814,173.944353 C32.702907,172.134653 31.7267442,170.301602 31.0343023,168.416011 C29.6104651,164.557263 28.9127907,160.202307 28.4476744,156.121725 C27.4883721,147.767916 27.8598837,139.466646 29.1337209,131.165376 C31.3017442,117.026363 36.5389535,103.495644 44.2546512,91.6228432 C43.8345515,91.4011758 43.4319649,91.1336166 43.0567767,90.8172245 L42.8715116,90.6549455 L42.5703488,90.3817392 C40.3686047,88.3811448 40.5587209,84.6315628 42.5703488,82.6052824 L43.2056837,81.9658207 C44.010186,81.1633133 44.7039535,80.5275131 46.0034884,79.6537198 C46.1953488,79.5247056 46.3912791,79.4032806 46.5895349,79.2900284 C45.9093023,78.0279085 45.6732558,76.5521272 46.147093,74.9239808 C47.7982558,69.2520302 55.9261628,69.4528485 61.077907,71.9263 C66.7773256,66.8188591 73.097093,62.3850937 79.947093,58.794882 C96.2616279,50.248427 114.708721,44.2880919 132.72093,40.6453406 Z M48.3897093,190.033171 C51.4362209,189.034917 55.4827326,191.130667 58.2211047,192.391619 C61.6920349,193.991161 64.6455233,196.355446 67.5059884,198.854 C68.930407,200.103277 69.1856395,202.146487 68.8315698,203.891972 C68.7961047,204.067104 68.7618023,204.248074 68.7205233,204.429044 C68.3426163,206.291284 66.2728488,207.756557 64.4414535,207.704018 C60.6100581,207.598938 58.7850581,204.277263 56.6158721,201.463471 C56.3606395,201.918815 56.0408721,202.339132 55.6449419,202.654371 L55.3775874,202.864499 C54.4775384,203.552659 53.4853224,204.102661 52.2961047,204.049591 C51.4530814,204.008727 50.6455233,203.79273 49.9007558,203.401602 C48.0402907,202.415023 47.2211047,199.998198 47.7263372,198.030878 C48.0402907,196.793277 48.7612209,195.824212 49.7030814,195.152871 L49.3519924,194.911757 C48.6007916,194.386822 47.9156544,193.833465 47.381715,193.016843 L47.2612209,192.823612 L47.3077326,192.823612 C46.7263372,191.81952 47.1048256,190.453489 48.3897093,190.033171 Z" id="ðŸ–-Ink" fill="#000000"></path>
                                </g>
                                <g transform="translate(216.000000, 105.000000)" id="face/Smile-Big" fill="#000000">
                                    <path d="M54.8354325,109.711328 C54.9575087,109.598768 55.1505052,109.559314 55.2975779,109.651567 C57.8129273,111.239007 58.1105606,116.577471 58.139045,119.660679 C59.1795986,119.931055 60.2073633,120.238563 61.1793218,120.453239 C63.2432221,120.909048 65.3186558,121.306558 67.3898481,121.725679 L68.9422007,122.045321 C74.1310173,123.136686 79.4169135,123.944331 84.7045536,124.348734 C89.8364014,124.740952 95.1170657,124.884263 100.234381,124.22457 C102.431751,123.94085 104.616332,123.467403 106.739875,122.83556 C109.249993,122.088256 111.249135,120.849519 113.583696,119.764536 C119.428235,117.047437 124.326394,125.009587 118.701592,128.50358 C113.87319,131.501498 107.28573,132.58242 101.712083,133.046584 C96.0151972,133.520611 90.3404014,133.000167 84.7121107,132.10085 C78.6274879,131.127846 72.6678478,129.633819 66.8971349,127.467334 C64.4571142,126.551481 62.0957364,125.441102 59.7901659,124.226919 L59.1627405,123.893273 C58.779654,123.687881 58.3802907,123.479587 57.9786021,123.268392 C57.5466851,127.11341 56.30209,130.8273 54.7982284,134.3973 L54.7627682,134.334638 C53.9402076,137.150952 50.968526,138.893307 48.0119585,137.649348 C44.5416696,136.190303 44.2780705,132.359801 46.2972599,129.640917 L46.3935779,129.514297 C48.7676678,126.465901 50.2552526,122.684126 51.5480969,119.079314 C52.2113772,117.231362 52.8252457,115.338734 53.3577301,113.448427 C53.7431419,112.080884 53.7570934,110.705218 54.8354325,109.711328 Z M144.26023,79.0924877 C142.203352,85.2968999 137.71722,90.0747751 131.467983,92.1754783 C125.274654,94.2577752 118.386474,93.4987158 112.055712,92.3729558 C110.670857,92.1266958 109.267043,91.8547739 107.865883,91.5376708 C109.01257,92.246599 110.025519,93.2444633 110.994854,94.29961 C112.427952,95.8595742 113.727826,97.5034968 114.12207,99.4562002 C114.513332,101.393593 113.896971,102.86757 112.772808,103.980008 C111.043522,105.691258 108.254007,106.612987 105.891248,107.122422 C100.600356,108.263864 95.3002481,108.086229 90.0353388,106.916233 C88.6910453,106.617597 87.7794941,105.898054 87.2678183,104.959774 C86.6461594,103.819814 86.595327,102.402305 86.9519683,101.111138 C87.3083547,99.8208944 88.0786337,98.6312685 89.1965542,97.9727843 C90.1167021,97.4307933 91.2676648,97.2820842 92.573987,97.7158943 C95.1958445,98.5865621 97.7989529,99.1634201 100.568242,99.2300804 C101.740374,99.2572171 102.920349,99.2226248 104.09066,99.1152848 C104.752388,99.0545916 105.412908,98.9704677 106.069454,98.8654267 C105.682685,98.3514627 105.307093,97.8279428 104.940018,97.2990025 C104.506252,96.673964 104.083768,96.0404737 103.680507,95.3968291 C102.514322,93.5326899 101.543125,91.6163867 100.689867,89.5937 C100.41612,88.9457847 100.162348,88.2949978 99.9187023,87.6419822 C99.8836069,87.5479199 99.8487007,87.4537554 99.813739,87.3593301 C99.7385218,87.296635 99.6638869,87.2333075 99.5898281,87.1693609 C97.9208065,85.7282305 96.5214644,83.952796 95.5316587,81.7538872 C92.8519204,75.7975638 93.2882206,68.4041108 94.9143249,62.2194246 C96.2173377,57.26204 99.0937899,52.6767509 102.893925,49.5617067 C103.55757,48.4720801 103.995527,47.8110961 104.532414,47.2544488 C106.71637,44.9865748 109.7639,43.4570349 112.737958,42.5266147 C119.380313,40.4476701 126.614466,41.9391933 132.245081,45.897464 C137.443975,49.5522188 141.513926,55.0333845 143.713258,61.129653 C145.796058,66.9029104 146.202469,73.2353421 144.26023,79.0924877 Z M53.7844152,41.3866451 C61.6839031,41.3193413 69.7211626,43.6471229 76.1313218,48.305587 C82.2641938,52.7633003 87.0786436,59.3445631 87.0728462,67.1837099 C87.0670173,74.8163038 82.9792111,82.3206724 78.4455363,88.230058 C73.3567059,94.8641195 66.7064637,98.0627884 58.3448304,98.1364744 C53.9985101,98.1752457 49.6202636,97.7910337 45.3050818,97.2634288 L42.9899542,96.9720326 C39.801789,96.5616308 36.5805335,96.0758508 33.5587266,94.9824812 C19.1746713,89.7751433 18.7293841,70.983471 24.0565536,58.9714915 C28.1699377,49.6974983 38.5807059,40.6532662 48.961827,41.7388294 C50.5261453,41.5200922 52.1323183,41.4011502 53.7844152,41.3866451 Z M67.126173,50.223744 C57.2339377,45.7921399 45.2146713,47.1190683 35.6189066,51.8483174 C31.8176886,55.9874983 29.0395848,61.2041195 27.9153218,65.9931297 C26.7149066,71.105314 26.8904637,76.6120375 28.6954464,81.5669863 C30.8992111,87.6156212 36.3257855,89.1137099 42.1796263,90.043198 L44.4523356,90.3993935 L45.405801,90.5436124 C51.1577342,91.3999468 57.4461705,92.0660056 62.9738408,90.9941536 C69.1342761,89.7984676 73.0466471,84.8312885 76.1259378,79.7385184 L76.2696747,79.4997167 C79.4674879,74.1635734 82.1444429,67.6739829 79.4622561,61.559785 C77.1817578,56.3628908 72.2004706,52.4969863 67.126173,50.223744 Z M125.513846,51.767901 C122.118967,49.8903584 118.246829,49.549198 114.581057,50.8059215 C113.003813,51.3465358 111.641093,52.2227755 110.319583,53.2050624 L109.792767,53.6030887 C108.167725,54.848039 106.649994,55.4785997 105.430924,57.1600302 L105.273625,57.3854437 C104.658594,58.3021672 103.58258,58.6688567 102.602483,58.5470137 C101.460199,61.6899829 100.988753,65.0888225 100.979254,68.4348635 L100.980196,68.8782301 L100.986006,69.3304859 C101.059249,73.2855264 101.750608,78.1239517 104.868448,80.7746587 C107.712311,83.1920355 112.01844,83.7722916 115.862766,84.1088804 L118.825571,84.3554906 L119.613019,84.4148198 C123.665101,84.6961745 128.105348,84.6002218 131.50139,82.2060239 C134.45912,80.1207679 135.854275,76.5815188 136.215853,73.0869454 C137.070967,64.8312116 132.884338,55.8438396 125.513846,51.767901 Z M51.6179709,52.5305802 C57.0654727,49.7548805 63.6093343,50.4505461 68.2238118,53.9294539 C67.8139848,54.0095222 67.4105522,54.1116382 67.0082824,54.3129693 C65.9613343,54.8368942 65.3114242,55.8859044 65.0637841,57.0022184 C64.7847529,58.2641638 65.4398948,59.4588055 66.6879779,59.8568259 C67.773874,60.202628 69.0614865,60.3610239 70.0700678,59.7024915 C70.598483,59.3578498 70.967618,58.9035495 71.2100263,58.3314676 L71.2443239,58.2473379 L71.2869377,58.1855958 L71.3031029,58.1567081 C71.3068188,58.1457089 71.2877287,58.166625 71.2576941,58.213686 C71.2885038,58.1423208 71.3169882,58.0709556 71.3454727,57.99843 C71.3879087,57.9119795 71.4286007,57.8249488 71.4617356,57.7350171 C71.5204484,57.6845392 71.5739294,57.6282594 71.6279917,57.5719795 C72.4662478,58.8594539 73.1242962,60.3134471 73.5422616,61.931058 C76.2244484,72.3138225 65.2259709,83.0888055 55.4000055,84.1668259 C51.6865661,84.5741297 48.3004069,83.6916382 45.4903308,81.9521843 C45.5159087,81.9179522 45.5443931,81.8872014 45.5676457,81.8512287 C46.6965592,82.0537201 48.0440471,81.5495222 48.453874,80.2927986 C49.4996595,77.0871672 48.4271336,73.3373038 44.927618,72.2900341 C42.6756042,71.6158362 40.371272,72.3608191 38.7616111,73.8972014 C37.5443377,70.9236519 37.1089329,67.5758703 37.6850159,64.2228669 C38.4976941,59.4924573 41.3566007,55.2296928 45.8059848,53.2616382 C47.9725453,52.3025597 49.8397287,52.1012287 51.6179709,52.5305802 Z M108.986076,58.9365051 L109.151919,58.6757711 C110.835268,56.0902442 114.053083,52.9185926 117.38782,53.7906689 C117.85636,53.9130922 118.315599,54.1103618 118.729495,54.3662321 C120.561799,54.1179044 122.480138,54.5333311 124.055502,55.5005324 L124.012657,55.6090092 C124.005832,55.627146 123.999696,55.6455836 123.995045,55.6647304 C123.85146,56.2936724 123.93517,56.8750375 124.229315,57.4529215 C124.548457,58.0789625 125.003626,58.6725119 125.61982,59.0316587 C126.042436,59.2776655 126.53946,59.4070512 127.026602,59.3971877 C127.741038,59.3844232 128.370021,59.0705324 128.886228,58.5912833 C129.167003,58.3313515 129.362907,57.950157 129.471031,57.5579386 C129.725647,57.8016246 129.972706,58.0731604 130.208138,58.3812491 C134.074464,63.4557201 133.540235,71.6099181 129.004235,76.1331945 C128.821121,76.3153788 128.626381,76.480157 128.433965,76.6484164 C126.59236,79.1786894 123.753799,80.8960956 120.344388,81.2436382 C117.187848,81.5656519 114.031308,80.633843 111.610713,78.7238089 C111.805453,78.6205324 111.987405,78.4865051 112.14436,78.3089625 C112.557675,77.8418976 112.897744,77.381215 113.148872,76.8108737 C113.212042,76.6673697 113.272886,76.5228343 113.330544,76.3769235 L113.414533,76.1569829 C113.429107,76.1165758 113.557963,75.7454845 113.523703,75.8106719 L113.515805,75.8257277 L113.561509,75.7187944 C113.994739,74.6395049 113.819659,73.4056907 112.791448,72.7287178 L112.678007,72.6583481 C112.342007,72.4628191 111.925785,72.3705666 111.504332,72.3694061 C110.454478,71.0865734 108.891903,70.7924096 107.425246,71.1672218 L107.373745,70.7530416 C107.365952,70.6839113 107.35917,70.6146735 107.354325,70.5452423 C106.217855,66.7849352 106.766035,62.511727 108.986076,58.9365051 Z M58.529863,21.0781433 L58.907271,21.0195282 C61.7605053,20.6079659 63.7005135,21.0818422 65.5556346,23.5155836 C66.4398145,24.675413 66.1671779,26.4270512 65.5556346,27.6124096 C63.5803266,31.4423413 58.1461952,30.6503618 54.4862367,31.4110102 C50.9128941,32.1530922 47.3482713,33.1632287 44.0045481,34.6334676 C40.5928111,36.1338771 37.3903474,37.9087235 34.2675239,39.9353788 C31.4429149,41.7694061 28.8810602,44.525959 25.6541813,45.5929556 C25.5088526,45.6411126 25.3338768,45.5111468 25.3426478,45.3573925 C25.5727972,41.6945597 28.6380706,38.332273 31.0121606,35.7236724 C33.758292,32.7071877 37.097946,30.0289625 40.5759529,27.8996109 C44.164991,25.7029556 48.0446865,23.8944573 52.0615723,22.6330922 C54.1769772,21.9687577 56.3412125,21.4407713 58.529863,21.0781433 Z M101.998439,26.0515427 C105.590965,20.8082321 114.521705,21.813727 119.791325,23.2149215 C126.398549,24.9706212 133.558024,28.5220546 138.191103,33.6626689 C142.34111,38.2677543 136.132086,44.2508259 131.46529,40.3756382 L130.219854,39.3448344 L129.4228,38.6914427 C125.840197,35.7709588 122.292365,33.1278182 117.926466,31.1805529 C112.807408,28.8986075 107.620335,27.7869352 102.210037,26.5708259 C101.997276,26.5232491 101.872293,26.2354676 101.998439,26.0515427 Z" id="ðŸ–-Ink"></path>
                                </g>
                            </g>
                        </g>
                    </g>
                </g>
            </g>
        </g>
    </g>
</svg>