<?xml version="1.0" encoding="UTF-8"?>
<svg width="700px" height="699px" viewBox="0 0 700 699" version="1.1" xmlns="http://www.w3.org/2000/svg" xmlns:xlink="http://www.w3.org/1999/xlink">
    <title>lightmode/skills</title>
    <defs>
        <circle id="path-1" cx="349.5" cy="349.5" r="349.5"></circle>
    </defs>
    <g id="Design" stroke="none" stroke-width="1" fill="none" fill-rule="evenodd">
        <g id="1.1-Skills" transform="translate(-980.000000, -192.000000)">
            <g id="lightmode/skills" transform="translate(980.614287, 192.000000)">
                <mask id="mask-2" fill="white">
                    <use xlink:href="#path-1"></use>
                </mask>
                <use id="Mask" fill="#CBE9EE" xlink:href="#path-1"></use>
                <g id="Group" mask="url(#mask-2)">
                    <g transform="translate(111.000000, 333.000000)" id="body/Macbook">
                        <g transform="translate(238.000000, 213.500000) scale(-1, 1) translate(-238.000000, -213.500000) ">
                            <path d="M444.662616,228.041618 C444.662616,223.327938 438.145314,214.961069 438.133909,210.691354 C443.613146,209.710943 448.194101,202.279529 446.980243,197.625636 C444.841734,195.989288 439.236332,192.767839 436.918014,191.263727 C422.793383,191.692475 428.161476,172.021057 426.562978,162.0218 C424.953422,152.238665 423.758185,142.009307 421.402625,132.17083 C417.218713,124.298418 415.255359,115.472975 411.256493,107.640176 C409.470621,105.044388 406.584361,102.664723 405.720229,99.6489259 C396.971838,90.0836599 384.928689,84.3503256 375.017647,76.2489764 C378.864053,75.016327 378.607432,69.823005 378.358958,66.4879778 C379.253931,62.137005 378.297858,56.6797936 374.333907,54.2284757 C372.994356,49.8594443 367.139207,48.3343611 363.715266,51.1177254 C361.466195,41.026428 352.667178,34.9039587 343.44977,31.1594075 C343.457916,31.1296981 343.465481,31.1005712 343.47421,31.0708618 C334.178244,27.3775739 323.036094,25.5363642 313.760958,27.6124905 C318.656883,-26.9996734 276.874285,-29.0043802 255.669151,-24.4149108 C244.822807,-22.067415 228.548416,-14.7589828 224.851346,-4.59898107 C222.764101,1.13702239 216.774417,19.6360892 215.921694,25.5363642 C199.728965,16.2862509 180.95687,4.08888909 166.91196,22.7114484 C164.099603,25.9567649 160.987564,28.3673052 156.779212,29.482282 C143.63975,32.8953693 126.199995,33.0095467 118.731799,46.4183952 C114.26799,54.7253802 118.282567,60.1989027 117.083256,68.5088004 C57.9364738,110.089746 8.50870367,263.269734 19.6068357,334.533296 C22.2766254,360.036206 35.3113443,405.176455 67.4844054,399.54856 C83.8941334,417.5164 359.324808,417.5164 387.726026,399.54856 C411.104143,405.669865 434.858645,396.194309 444.662616,373.779431 C457.112518,343.043586 443.918938,309.850016 441.580836,278.320173 C440.160878,270.359878 438.047594,264.040956 436.918014,255.89146 C436.447319,252.495571 438.070939,246.845981 436.918014,243.715697 C437.462,241.678072 444.662616,232.755297 444.662616,228.041618 Z" id="ðŸŽ¨-Background" fill="#FFFFFF"></path>
                            <path d="M314.46876,9.96174106 C315.119332,12.7503482 314.525205,15.8943031 314.634022,18.75631 C314.737601,21.4913236 315.059978,24.2106087 315.534814,26.9054273 C320.52874,24.2758529 326.430442,23.9379812 332.121493,24.7844082 C339.4832,25.8795787 348.001738,28.3029348 353.771347,33.2265419 C355.195855,34.4428802 356.375963,35.882913 357.364041,37.4703277 C358.549968,39.3752254 359.307029,41.527119 361.187171,42.8920044 C364.095542,45.0037029 367.701039,45.821003 370.497102,48.1610562 C373.347865,50.5465473 375.117444,54.112842 375.491611,57.7933141 C375.691205,59.7523877 375.368246,61.5838857 374.99699,63.4946087 C374.664139,65.2136769 374.827655,65.9191299 375.279797,67.574119 C375.63476,68.8731776 374.95742,70.3475801 373.85296,71.0641012 C376.22074,72.6911285 378.556515,74.368254 380.851557,76.1135364 C394.2232,86.2729907 405.530237,98.9373563 413.368525,113.838666 L413.557962,114.2087 L413.777303,114.653617 C415.687498,118.582211 420.685362,130.067729 421.30632,132.649968 C421.750315,133.998542 422.180344,135.352359 422.580114,136.714332 C423.635742,140.324123 424.53099,143.978457 425.27303,147.662977 L425.471611,148.668584 C426.073885,151.763023 427.110261,155.42835 426.943254,158.726677 C428.679083,167.731542 430.217063,176.774272 431.529845,185.854867 C431.701508,187.044408 431.228418,188.010838 430.494051,188.652212 C432.249665,188.934742 433.994222,189.281935 435.719577,189.63204 L436.721848,189.843085 L437.223453,189.95404 C440.816931,190.765372 444.363438,191.946854 446.717039,194.968083 C449.254735,198.236702 449.306525,202.436797 446.757772,205.728134 C444.59366,208.524314 441.433322,209.8525 438.133909,210.691354 C437.482755,210.854464 436.824618,211.005924 436.167063,211.139325 C435.725396,211.232531 435.434442,210.627274 435.852833,210.394259 L436.553026,210.006931 L437.508287,209.482829 C439.995417,208.110296 442.576785,206.561316 443.95298,204.085378 C445.821484,200.724137 444.342858,197.612804 441.13655,195.906551 C438.452449,194.476098 435.132159,194.109811 432.151518,193.621161 L430.920616,193.417594 C427.804451,192.919666 424.625644,192.596143 421.48031,192.952504 C418.727889,193.267074 415.940555,194.205542 413.717088,195.888493 L413.511218,196.050496 L413.29847,196.229507 C411.348756,197.920883 408.54504,201.720329 412.222168,202.815446 C415.032779,203.647261 418.457445,203.440634 421.411416,203.601932 L421.793958,203.625174 C424.267063,203.794109 426.851312,203.794109 429.352931,204.091204 C430.249068,204.195478 431.134149,204.341112 432.00119,204.545583 C434.485933,205.133946 433.63053,208.442759 431.441978,208.675774 C430.906623,208.734028 430.360212,208.762572 429.812638,208.774805 C428.381146,209.8525 426.402662,210.341831 424.709894,211.011167 C423.092193,211.652541 421.468672,212.287506 419.833513,212.910822 C421.241728,212.974901 422.649943,213.091408 424.052339,213.266169 C424.505645,213.318015 424.511464,213.930262 424.052339,213.976865 C420.676696,214.320562 417.301635,214.693386 413.938212,215.164659 C408.730726,215.887588 403.55699,216.854601 398.500799,218.327838 C394.804858,219.409693 391.154074,220.697488 387.613208,222.200549 L386.542026,222.661917 L386.100058,222.855064 C382.886377,224.249458 378.728993,225.881188 376.882369,228.953322 C375.916403,230.5553 375.492193,233.031085 376.853855,234.563741 C378.310001,236.214315 381.360512,236.025793 383.400136,236.106145 L383.563244,236.113291 C387.880995,236.323004 392.203982,236.351549 396.527552,236.200671 C405.587845,235.880276 414.65454,234.889962 423.551899,233.147592 C425.192877,232.827779 425.902804,235.291913 424.250188,235.676388 C413.755089,238.117382 403.145035,239.456578 392.37671,239.518923 L391.197283,239.521135 C387.002642,240.323945 382.888809,241.520991 378.809754,242.872276 L377.994393,243.144519 C375.585298,243.959489 371.471215,244.769798 370.050779,247.163445 C369.108672,248.753772 369.439777,249.8437 370.37141,250.583523 C372.011806,251.882581 375.503249,252.126665 377.202418,252.191326 C384.010731,252.44706 390.824863,252.493663 397.638995,252.348029 C401.043733,252.272299 404.447889,252.150549 407.852046,251.975787 C411.180555,251.801026 414.735425,251.305869 418.052295,251.625682 C419.47855,251.765491 419.955713,253.862626 418.407841,254.253509 C414.317249,255.290728 409.729685,255.200039 405.503554,255.332347 L405.017577,255.34868 C400.478701,255.511208 395.934589,255.581695 391.395713,255.570044 C387.499762,255.554565 383.604666,255.475744 379.71299,255.332481 L376.272274,255.19591 L375.662911,255.166724 C373.82927,255.068364 371.956292,254.856855 370.330677,254.101467 C368.829356,256.618029 369.951855,259.990921 371.889606,261.983199 C373.734251,263.882854 376.394149,264.814914 378.94232,265.397452 C379.181484,265.44988 379.420066,265.501726 379.658647,265.548912 C385.256594,266.690103 390.959283,266.591654 396.196447,269.165887 C400.600902,271.332927 404.6341,274.944659 409.56809,275.800989 C413.978946,276.569939 417.185254,274.624846 419.536158,271.024764 C419.66476,270.826702 419.792779,270.628639 419.91498,270.429993 C421.764863,267.447401 423.09743,264.162472 425.0474,261.237551 C426.042462,259.746838 427.165542,258.313796 428.538843,257.148721 C429.155083,256.618029 433.472833,254.323414 434.148427,253.636019 C437.052144,250.652845 434.480114,244.379498 435.236594,240.639607 C436.120511,236.28747 439.944222,234.755978 442.236936,231.382504 C446.594838,224.963523 434.642467,218.951153 438.215958,211.931576 C438.262511,211.844778 438.320119,211.780699 438.395767,211.739339 C438.709997,211.570403 439.211019,211.780699 439.181924,212.1943 C438.785645,217.425487 443.767352,221.025569 445.565444,225.557129 C447.613176,230.713168 444.342858,233.835569 441.003293,237.278366 C436.719875,241.699826 439.734154,246.651395 438.780408,251.975787 C438.65588,252.673667 438.455704,253.288827 438.195591,253.839325 C438.92763,254.293704 439.49208,255.046343 439.616026,256.09724 C441.08476,268.563543 442.663474,280.991399 445.241322,293.28527 L445.792892,295.89722 L446.531356,299.38168 C448.368717,308.096774 450.083796,316.846976 450.409821,325.756494 C451.433396,333.275306 451.839567,340.857032 451.23322,348.425942 C449.394393,371.465883 436.527845,395.571285 413.152638,402.642708 C407.741484,404.280221 402.003298,404.704891 396.451904,403.557875 C394.54965,403.167575 391.884515,402.304837 389.492295,400.999953 C389.634863,402.535521 389.747753,404.07109 389.794887,405.603164 C390.583164,406.482041 390.939645,407.809012 390.490695,408.944167 C388.584491,408.316473 386.851808,407.322274 385.291582,405.962006 L385.033141,405.731905 C384.108137,402.29116 383.83754,398.526498 383.703132,394.90172 L383.667987,393.870276 C383.632491,392.868311 383.609797,391.883823 383.5743,390.922636 C383.377034,384.939976 383.516691,378.945665 383.82452,372.96883 L384.051485,368.568964 C384.571362,358.306597 384.994226,348.068482 384.709601,337.777738 C384.383733,325.934751 383.371215,314.143609 382.102657,302.365283 C381.44452,296.288834 380.700261,290.225201 379.937381,284.160985 C379.32696,279.279321 378.302804,274.024832 378.285347,268.991708 C374.36853,268.152854 370.522706,266.544468 368.113029,263.253714 C365.558457,259.764314 365.180799,255.302077 367.449655,251.724714 C365.256447,248.719403 367.05454,245.88827 369.766227,243.977547 C365.599772,241.640989 363.277963,235.268029 362.661141,230.835501 C362.241586,227.794073 362.10833,223.244455 363.4054,219.824959 C361.54388,219.889621 359.681777,220.081858 357.819674,220.402254 C355.666036,220.780903 353.554295,221.333732 351.470486,222.021708 L350.415663,222.371037 C349.883376,222.549487 349.284178,222.759867 348.68897,223.006197 C352.454491,229.238766 347.618261,234.889962 341.415132,236.503591 C340.234442,236.811753 339.029894,237.027875 337.813709,237.202053 C335.072926,237.581285 332.273371,237.69721 329.555865,237.948284 C324.354198,238.425382 319.122853,239.107534 313.903146,239.328898 C312.756207,239.381326 312.017767,238.845392 311.668041,238.099161 C311.656985,238.088093 311.651166,238.081685 311.651166,238.070617 C311.528965,237.872554 311.446916,237.662258 311.417821,237.441476 C311.43586,237.458953 311.459136,237.470603 311.476012,237.482254 C311.225792,236.083581 312.06432,234.383154 313.903146,234.179266 C321.438843,233.328179 329.078701,233.287984 336.637674,232.664669 L337.122114,232.624395 C339.494798,232.419396 342.289531,232.042481 344.168134,230.538407 C345.913855,229.140317 346.070388,227.322217 345.3721,225.680044 C345.360462,225.720239 345.349405,225.766842 345.343004,225.808202 C345.290633,226.133841 344.843146,226.122772 344.697669,225.895 C344.261239,225.23149 344.150095,224.578465 344.261239,223.949325 C343.736941,223.344068 343.103244,222.807551 342.416594,222.39395 C339.372638,220.542063 335.369699,220.035255 331.90677,219.487088 C328.119136,218.887656 324.301826,218.613281 320.478696,218.433277 C312.954638,218.077347 305.406721,218.689594 298.005444,220.040498 C297.696452,220.093509 297.569014,219.662431 297.871606,219.5634 C300.757283,218.607456 303.707552,217.804137 306.692735,217.169171 C306.622907,217.156938 306.55366,217.145869 306.483831,217.127811 C306.221973,217.063732 306.03518,216.743918 306.123048,216.487602 C306.134105,216.446242 306.152144,216.406047 306.169601,216.371094 C304.900462,215.788557 304.371508,213.831231 305.907743,213.03898 C310.696256,210.563195 316.317479,209.444141 321.572682,208.4247 C326.617816,207.451862 331.71474,206.770294 336.818647,206.165037 C345.44833,205.151422 354.857767,205.174723 363.161,202.447865 L363.502447,202.333241 C366.883929,201.165661 370.920597,198.80033 371.156985,194.805556 C371.505547,188.764059 362.538359,190.337493 358.802515,190.483127 C348.57899,190.873427 338.36652,191.584123 328.188965,192.679294 C326.110975,192.900658 324.033567,193.127265 321.95674,193.360862 C318.773709,193.715628 315.584858,194.089034 312.407645,194.484577 C310.632828,194.706524 308.817278,194.997793 306.99009,195.277411 C306.419821,195.41722 305.86119,195.516251 305.302559,195.56868 C305.261244,195.573923 305.226911,195.562854 305.197816,195.545378 C302.538501,195.918202 299.867547,196.203063 297.272242,196.12209 C296.974887,196.116265 296.789259,195.649652 297.103489,195.509843 C300.455273,194.089034 304.185298,193.25018 307.926378,192.59133 C310.242951,190.861777 313.041342,189.475337 315.340457,188.135501 C318.494393,186.294682 322.108036,183.585883 325.686765,182.484887 C327.298066,181.214955 329.125254,180.195515 330.807547,179.502295 C330.324564,178.750822 330.149992,177.707497 330.236696,176.828448 C330.557327,173.67692 333.076985,171.917074 335.98652,171.299584 C336.888476,171.113755 337.93009,170.973946 339.041533,170.921517 C339.064227,170.333154 339.326085,169.756442 339.907992,169.325365 L340.079807,169.194899 L340.201764,169.097544 C342.154948,167.509921 346.032088,163.039902 341.36276,162.713564 C338.884418,162.53822 336.78897,164.35632 334.816305,165.585474 C330.719679,168.142813 326.757474,168.270389 322.078941,167.635423 L319.975766,167.333311 L319.626088,167.286114 C316.243556,166.841844 312.812232,166.780578 310.923782,170.233541 C308.898163,173.927411 308.188819,177.294478 304.103249,179.327534 C300.199234,181.267384 295.864026,181.651858 292.279479,184.31988 C288.43831,187.173732 285.552051,191.18159 282.410334,194.735068 C275.479821,202.564373 267.548427,209.479676 259.378452,215.980794 L257.925112,217.133708 C250.401122,223.086153 242.634692,228.946844 234.21097,233.53265 C234.152779,233.561194 234.094007,233.573427 234.042217,233.573427 C233.815273,233.550126 233.645938,233.258857 233.850188,233.060794 C243.690237,223.489703 255.200359,215.730303 265.307503,206.415528 C269.788188,202.285337 274.053567,197.939025 278.156012,193.430767 C281.740559,189.475337 284.917772,185.030576 289.096447,181.663509 C291.126721,180.025996 293.321092,178.774123 295.776158,177.900317 C298.069454,177.078356 300.641484,176.67058 302.753806,175.412299 C306.891166,172.954573 306.48965,167.129198 310.627009,164.483895 C314.174404,162.21536 318.49599,163.044248 322.429363,163.582629 L322.89943,163.645624 C325.448183,163.983495 328.084222,164.268939 330.516594,163.261149 C332.925107,162.26501 334.862858,160.40089 337.28941,159.410576 C340.670872,158.018311 345.465205,158.350358 347.19987,162.072772 C348.857723,165.626251 346.594687,168.841858 343.952828,171.201135 C347.554251,171.853577 350.714589,173.595365 350.982266,177.148843 C353.624124,177.06088 356.260163,176.967674 358.90144,176.875051 C368.101973,176.554655 377.347894,175.936583 386.554246,176.100276 C386.344178,175.161808 386.251073,174.194796 386.239435,173.21089 C386.234198,172.663305 386.257474,172.115719 386.297625,171.556483 C386.367454,170.600539 386.995914,170.023827 387.927547,169.924796 L390.006819,169.702729 L390.702646,169.633702 C394.598196,169.264874 398.95422,169.187528 401.922413,171.765614 C403.516838,173.158461 404.802853,176.362418 404.023097,178.50033 C405.838066,179.123646 407.566911,179.921139 409.14388,180.929512 C412.268721,179.880362 415.550677,179.997452 418.692393,181.09204 L419.065618,181.225557 C421.299175,182.046433 424.465022,183.60136 425.67877,185.819332 C422.732574,165.827809 418.762222,146.00697 413.771205,126.425554 C410.585264,118.605571 406.55963,111.131032 401.678012,104.232622 C389.382315,86.8497029 371.668481,74.896033 355.759723,61.153973 C354.355945,62.7004645 352.843905,64.172027 351.429824,65.5881735 L350.830388,66.1917574 C347.949948,69.112018 344.945562,71.9064505 341.874838,74.623988 C335.456985,80.3037288 328.701625,85.5459839 321.994564,90.8721244 C308.473953,101.610038 296.249831,113.012045 286.079259,127.030811 C285.89654,127.283632 285.389699,127.13625 285.531102,126.800126 C292.507004,110.199554 306.968559,97.5788789 320.105694,85.8681271 C327.014095,79.7101231 334.084266,73.700666 340.726735,67.2519757 C343.823376,64.2455444 346.823331,61.1353732 349.65337,57.8751856 L350.357298,57.0569866 C352.207762,54.888782 356.540643,48.2688256 359.404207,53.0450508 C360.004154,54.0441026 359.977968,55.3221899 359.404207,56.3224068 C358.590701,57.7437984 357.557816,59.0993632 356.428334,60.4013345 C360.443493,62.5875978 364.376022,64.896194 368.222427,67.3399389 C368.001303,66.1626306 368.056584,64.8612417 368.261997,63.5592704 L368.329341,63.1457029 L368.609481,61.5309441 C369.011328,59.1505373 369.217944,56.9374651 367.709185,54.6155719 C365.822643,51.7110398 362.265444,50.805194 359.431557,49.1269034 C356.167058,47.1928789 354.46207,44.6052472 352.714022,41.3209007 C349.366357,35.0335969 341.803413,32.5124623 335.303094,30.4897688 L334.4852,30.2357943 C328.478755,28.3722568 321.98118,27.3749525 315.975899,29.1656729 C316.539185,31.7905869 317.276462,34.3782186 318.197621,36.8988584 C319.178134,39.5820262 321.417894,42.5652008 321.188623,45.463325 C321.030344,47.4690016 318.627068,49.6127397 316.632872,48.0800835 C313.808295,45.9107138 313.243845,42.3776237 312.486784,39.011722 C311.754745,35.7565023 311.287474,32.4220576 311.088462,29.0916906 C310.896978,25.8820909 311.046626,22.6745392 311.441989,19.4867954 L311.745209,17.1456987 L311.818826,16.6020011 C312.148859,14.235482 312.639667,11.7516422 313.969484,9.89649686 C314.097503,9.71824038 314.410569,9.71416262 314.46876,9.96174106 Z M232.519366,-3.34516344 C232.561845,-3.15583874 232.591523,-2.9688442 232.61829,-2.78184966 C232.812647,-1.98377326 232.885386,-1.21657135 232.861528,-0.445874216 C232.873166,-0.16800382 232.852799,0.110449113 232.801009,0.385989359 C232.696848,1.29300027 232.478633,2.22389523 232.183606,3.24158827 C231.555728,5.40688022 230.836491,7.54595798 230.032877,9.65299618 C228.444271,13.819887 226.568784,17.7957056 224.250467,21.606666 C220.062481,28.4905119 214.738613,34.2046224 208.462163,39.143958 C209.653327,40.1278638 210.817723,41.1513823 211.984447,42.1562595 C217.623709,47.0146224 223.110511,52.0931844 228.425068,57.3057302 C237.863019,66.5639989 247.111268,75.9941162 256.142467,85.6502581 C260.596965,90.4125023 264.968833,95.237078 269.316843,100.094276 L269.459383,100.257708 L269.613499,100.441518 C271.157404,102.310689 274.243794,106.76854 276.546457,106.05247 C277.709107,105.690131 278.93344,103.953587 279.725997,103.125219 L281.185856,101.6013 C281.671167,101.091871 282.153422,100.57953 282.627386,100.059906 C291.120902,90.7439662 299.157621,81.0703482 306.703792,70.9592445 C310.3861,66.0257342 313.945625,60.9996005 317.375968,55.8860862 C319.139146,53.2570944 320.869738,50.6048011 322.565415,47.9303714 C324.205229,45.3439048 325.531396,42.5640357 327.948056,40.6335064 C329.721709,39.2167752 332.179102,40.5158338 331.732198,42.8384109 C331.02809,46.496164 328.499122,49.5894382 326.507836,52.6809648 C324.507821,55.7876374 322.460672,58.864018 320.367552,61.9077765 C316.339009,67.768104 312.135894,73.5049334 307.782647,79.1264205 C304.033808,83.9675985 300.122633,88.6844452 296.105597,93.3056776 L295.007459,94.5636647 C290.686799,99.4948447 286.44586,104.729527 281.671312,109.230212 C277.396041,113.260789 272.726819,112.086393 268.832114,108.169411 C263.906271,103.217259 259.333063,97.8614095 254.59343,92.7286715 C245.12231,82.4713509 235.552266,72.2920903 225.883298,62.2211817 L222.704835,58.9066583 C218.998741,55.0340424 215.307783,51.1371109 211.713278,47.1689948 L211.249426,46.6516242 C207.150213,42.0353031 202.981805,36.2522206 197.153963,33.9051981 C196.732662,33.7356797 196.887449,33.1368311 197.342501,33.2207165 C201.073107,33.9110235 204.187474,35.7926196 207.085371,38.0406319 C209.689987,33.7257765 212.014124,29.1773236 214.040325,24.525179 L212.740325,23.9601032 C203.439236,19.9367485 192.955851,15.8800179 182.969978,16.5321817 C178.945508,16.7943236 174.651616,18.3205719 171.873009,21.3451067 C169.356843,24.0847806 168.100506,27.7792336 165.791498,30.697164 C163.146731,34.0391817 159.697185,35.5432936 155.463811,35.6790248 L153.405308,35.741509 C151.037675,35.8184383 148.76716,35.9427849 146.365694,36.4642854 C139.858809,37.8763563 132.998706,40.1674764 127.541581,44.0803809 C125.561933,45.4994423 123.518276,47.450943 122.561039,49.6010889 C121.611948,51.7314286 121.339034,54.2241067 121.246511,56.5233823 C121.201704,57.6441844 121.537464,59.1244123 121.256985,60.1968638 C121.28899,60.0739484 121.303537,60.1391926 121.307611,60.2673509 C122.179889,60.9559102 122.774017,62.1005965 122.838608,63.2412049 C128.278276,60.4030821 133.909391,57.9156469 139.649904,55.67346 C146.041572,53.1772868 152.631669,51.1768529 159.222931,49.2824409 C165.673953,47.4293891 172.426403,46.6627697 179.002535,45.3415746 C179.839899,45.1732213 180.130853,46.3050917 179.350515,46.605681 C172.438623,49.2632172 165.750765,52.4135801 158.781264,54.9138311 C151.815254,57.4134996 144.901034,60.1188038 138.136946,63.1258625 C125.062657,68.9401694 112.433528,76.3383959 102.13319,86.3760999 C92.0731804,96.1802063 84.3134494,108.090186 77.0966377,120.064827 C69.8286181,132.123936 63.3420998,144.622279 57.5608528,157.460823 C46.1240509,182.858876 37.5479042,209.562978 31.9016597,236.839715 C26.406711,263.38362 23.3365692,290.875313 24.35898,318.005832 C24.8442905,330.891562 26.4166034,343.787195 30.0733076,356.180098 C31.8201927,362.10101 34.0069995,367.88619 36.7698944,373.409228 C39.6835032,379.232273 43.6090484,384.419187 46.2695276,390.341264 C46.4883247,390.828265 46.5721193,391.296043 46.5598993,391.730616 C57.9070875,401.572587 75.6680557,394.940397 87.948623,389.064341 C116.206031,375.53782 143.939723,360.735542 170.300114,343.748748 C196.31718,326.982736 220.972584,308.271631 245.04608,288.850412 C243.183978,286.928038 241.542418,284.77265 240.09987,282.821149 C237.120506,278.789989 234.880163,274.222895 233.33811,269.457156 C231.534198,263.876446 230.974985,257.905437 231.487645,252.074819 L231.633061,250.425708 C232.123511,244.919568 232.690077,239.332022 233.89674,233.951494 C233.907797,233.882172 233.96075,233.852463 234.018941,233.852463 C234.07655,233.852463 234.135322,233.887998 234.158599,233.951494 C237.411459,244.373673 237.673317,255.575287 241.327112,265.863482 C242.799337,269.999498 245.080413,273.995706 247.815958,277.426852 C248.997229,278.91174 250.382168,280.19973 251.795621,281.458011 C251.889308,280.816637 252.016745,280.182254 252.208775,279.558939 L252.361156,279.065419 C252.550519,278.46648 252.784863,277.800193 253.110731,277.21073 C252.651024,277.077329 252.203537,276.931695 251.761288,276.768002 C251.411562,276.640426 251.335914,276.075365 251.761288,275.982159 C252.919283,275.714191 254.112193,275.580208 255.328378,275.521954 C255.520408,275.492827 255.706036,275.487002 255.892246,275.498652 C258.168085,275.428165 260.484075,275.591858 262.677865,275.626811 C266.477718,275.685064 270.265933,275.754386 274.059386,275.923905 C281.322168,276.237892 289.520657,277.63074 296.667058,275.940798 C303.161141,274.403482 309.562119,270.06882 314.769606,265.991058 C319.320119,262.426511 322.829601,258.191463 326.605596,253.968066 C326.334427,254.010785 326.065328,254.050916 325.797262,254.088284 L323.362214,254.42233 C320.288431,254.833141 316.639564,255.155397 314.199919,253.676797 C313.268286,253.111736 313.536545,251.830153 314.485053,251.480048 C316.975034,250.566047 320.065542,251.323345 322.718457,251.195187 C324.801684,251.095573 326.90877,250.874792 328.962902,250.443714 C329.637914,250.303905 330.306525,250.140794 330.969899,249.948557 C335.834643,248.544641 341.549552,243.604723 337.685689,238.210426 C337.540212,238.006538 337.702564,237.820126 337.900413,237.784591 C337.988281,237.767697 338.081386,237.784591 338.157034,237.849253 C342.555669,241.495355 340.268775,248.031426 336.108139,250.834014 C334.677229,251.801026 333.059528,252.47677 331.383635,252.971927 C331.703684,253.559707 331.761293,254.282636 331.377234,254.969448 C328.119136,260.783755 322.602657,265.892026 317.43474,269.999498 C312.12833,274.216487 306.006667,278.195219 299.425298,280.059921 C291.825009,282.203077 283.475224,280.59003 275.764956,279.908461 C271.586281,279.54088 267.420408,279.103977 263.248134,278.620471 C262.13029,278.492895 260.972877,278.393864 259.796843,278.283182 C260.903048,279.739526 261.781728,281.417234 262.357816,282.425023 C264.231557,285.698302 262.503293,290.009662 258.872193,291.011044 C258.493371,291.116483 258.103493,291.174737 257.720017,291.185805 C256.741831,293.148957 254.414202,294.594232 252.261146,293.853827 C251.324858,293.534014 250.42232,293.097111 249.55586,292.572827 C236.0143,304.479894 221.757577,315.652381 207.0941,326.126988 C179.901581,345.548789 151.39919,363.287056 121.844711,378.881586 C115.187752,382.394287 108.479888,385.812617 101.71518,389.097931 L95.892684,391.907496 C89.4479657,395.012423 82.8522079,398.100372 76.0078895,400.027115 C74.6735765,400.402852 73.2764176,400.706354 71.8449262,400.938786 C71.8263913,401.067075 71.8217184,401.189895 71.8300998,401.307464 C70.5431805,401.4792 69.4202122,401.505374 68.4612971,401.386012 L68.2429213,401.355883 C59.8535667,401.943081 50.8799775,399.892549 45.4827892,393.758429 C44.5831609,394.390482 43.2715423,394.460386 42.1141291,393.551045 C36.2933125,388.978708 32.8234005,382.017385 29.7782807,375.371214 C26.6906817,368.629508 24.2705301,361.603523 22.492222,354.405689 C18.9402611,340.029828 17.5314641,325.200753 17.4572212,310.413038 C17.1887208,253.429801 31.4442807,195.946164 56.2055912,144.788302 C62.4855325,131.813444 69.4078993,119.080921 77.0925643,106.884333 C84.7562807,94.7209498 93.6553858,83.4168093 105.052036,74.545928 C108.329337,71.9955787 111.738731,69.663681 115.255195,67.5152827 C112.89498,66.3443823 111.957528,63.3658679 111.792266,60.7199825 C111.425665,54.8439266 112.125117,48.0742581 115.56186,43.1162813 C120.38296,36.1607834 129.013224,31.8721422 137.015611,29.7866578 C141.193122,28.6984778 145.514364,28.0640944 149.823386,27.8497206 C152.045107,27.7384559 154.353533,28.1042895 156.548486,27.864284 C158.485073,27.6534055 159.682638,26.4964859 160.796408,24.9754805 C163.649498,21.0765569 165.506946,16.9871435 169.599498,14.1292145 C173.79854,11.1973031 179.239953,10.0753359 184.298471,10.3794205 C190.191444,10.7341858 195.567684,13.0585105 200.757713,15.729445 C205.442066,18.1399853 209.989088,20.8103372 214.42031,23.6589457 C215.232652,21.7534655 215.99786,19.8334218 216.709533,17.9069703 C218.089816,14.1717397 219.29029,10.3176715 220.264403,6.45661282 C221.251899,2.54137817 221.107586,-2.62922483 224.090442,-5.57336944 C226.684002,-8.13245675 231.678511,-7.12757954 232.519366,-3.34516344 Z M433.556321,257.902101 L433.535097,257.906602 C427.501885,261.485712 424.616789,270.429993 421.777083,274.33882 C422.009264,275.64953 422.172198,276.983541 422.492246,278.224345 C423.226031,281.073536 424.185596,283.898843 425.297621,286.613468 C427.252828,291.407752 429.702657,295.974846 431.966276,300.622913 C433.787645,304.361056 435.572354,308.167939 436.960784,312.10298 C436.81007,312.253857 436.670995,312.432696 436.552867,312.654643 C435.046892,315.478202 433.867948,314.923044 431.089342,314.306719 L431.087596,314.300894 C429.498408,309.431463 427.206276,304.858543 425.146325,300.18601 L424.645329,299.045224 L424.149903,297.903532 C422.428719,293.904731 420.858042,289.868921 419.943493,285.582377 C419.361586,282.850276 419.123004,280.041862 419.088672,277.251508 C417.581533,278.492895 415.77122,279.384178 413.490726,279.727292 C408.60998,280.465346 404.189509,277.405394 400.212773,274.950368 L399.316485,274.401118 C396.826919,272.884835 394.358542,271.483949 391.488237,270.767865 C388.229557,269.952895 384.860315,269.952895 381.549845,269.538711 C381.153567,269.486283 380.752633,269.433854 380.350535,269.370358 C381.642369,273.652008 382.241733,278.300658 383.010432,282.588134 C384.081141,288.599921 384.954002,294.664137 385.791948,300.710876 C387.421288,312.431531 388.556007,324.244809 389.131513,336.065078 C389.689174,347.509513 389.408322,358.911148 388.99471,370.352016 L388.788402,375.931321 C388.62305,380.473947 388.486939,385.021531 388.567063,389.565324 C388.788188,389.582217 389.009312,389.617752 389.231019,389.67018 C391.523733,390.206115 393.088481,392.547333 395.183929,393.590658 C399.605841,395.79265 404.94833,395.763523 409.655958,394.650876 C420.363048,392.11043 429.266227,384.630648 435.131268,375.491217 C442.172926,364.527861 444.756594,351.624073 444.674545,338.715041 C444.577681,324.18692 442.227405,310.296067 438.955573,296.270286 L438.745493,295.374832 C435.991793,283.690068 434.266962,258.013153 433.556321,257.902101 Z M133.733888,228.588421 C133.794988,232.496082 132.207545,236.675789 131.335267,240.472769 C130.396068,244.56393 129.459198,248.655091 128.509526,252.744504 L127.655361,256.40821 C126.944196,259.461411 126.242998,262.51682 125.614538,265.588874 C125.097804,268.114174 124.881335,271.442211 124.03466,274.226157 C134.105726,270.148395 144.192504,266.111992 154.262406,262.047628 C166.668665,257.038388 179.133115,252.167792 191.568469,247.239524 C203.957271,242.334559 216.276244,236.753849 228.915848,232.559579 C231.924308,231.557614 233.960983,236.363549 231.079961,237.696977 C218.24309,243.656919 204.661379,248.323044 191.510279,253.543163 L172.48681,261.10339 C155.047644,268.030423 137.596587,274.923999 120.057907,281.580111 C108.111355,286.112835 96.2113545,290.778961 84.189154,295.083331 C78.4573692,297.134445 72.6737946,299.074295 66.9705232,301.199975 C62.193066,302.982539 57.0257311,305.627842 55.2567335,310.765241 C55.1636284,311.033208 54.7970269,310.923108 54.8377604,310.648733 C55.5535061,305.673863 59.243379,302.563112 63.4034328,300.209661 C68.924972,297.078142 74.9895659,294.799396 80.8180491,292.288038 L81.6113056,291.944036 C93.5130513,286.747801 105.510812,281.761863 117.544068,276.859227 C117.424778,276.567958 117.354367,276.255718 117.34913,275.929497 L117.314797,275.938818 C117.096,273.711777 118.116083,271.725906 118.849868,269.654403 L120.954626,263.71019 C122.357022,259.751848 123.615105,255.744572 124.911012,251.750695 C126.266274,247.576231 127.634337,243.405845 129.000073,239.234876 C130.156905,235.701786 130.934333,231.490623 132.913399,228.332687 C133.15198,227.95229 133.809535,228.166081 133.733888,228.588421 Z M365.500848,219.80224 L365.350877,220.560966 C365.175986,221.448168 365.012046,222.342104 364.971312,223.239212 C364.854349,225.586838 365.122026,227.933882 365.745249,230.200535 C366.356251,232.442722 367.211073,234.610344 368.427841,236.596797 C369.580017,238.46616 371.25009,239.934737 372.31498,241.851285 C372.42496,242.054591 372.494789,242.258479 372.523885,242.457124 C372.93122,242.288189 373.333317,242.136729 373.723195,242.013813 C376.970237,240.983305 380.286525,240.120566 383.649948,239.474532 L383.116523,239.438366 L382.772115,239.410896 C377.152404,238.934834 371.850215,237.094323 372.995811,230.526174 C373.643823,226.813406 376.55496,224.32362 379.675034,222.558947 L380.065982,222.342104 C380.234154,222.248315 380.409308,222.155109 380.577479,222.074137 C377.755229,221.596456 375.707498,221.008093 372.245151,220.425556 C369.998408,220.046906 367.746427,219.837193 365.500848,219.80224 Z M108.76891,138.897974 C114.294699,150.074538 118.451844,161.958304 121.588323,174.015083 C123.102523,179.837584 124.387601,185.717428 125.420849,191.644194 L125.760209,193.623239 L125.953079,194.697354 C126.918277,199.980155 128.144183,205.703091 126.726562,210.857668 C126.263946,212.541784 123.470792,213.208207 122.688709,211.386612 C120.329658,205.887458 120.661345,199.566343 119.977604,193.681549 C119.258949,187.506652 118.278435,181.360881 117.05643,175.265791 C114.709246,163.554228 111.414622,152.11675 107.742322,140.765321 L107.332763,139.504395 C107.020861,138.663794 108.379032,138.1098 108.76891,138.897974 Z M321.164765,188.898043 C319.517968,189.6734 317.871171,190.384096 316.416403,191.094209 C316.306422,191.153045 316.190041,191.204891 316.073078,191.263727 C317.719875,190.984109 319.372491,190.721968 321.025107,190.476719 C321.008232,189.940785 321.060603,189.411258 321.164765,188.898043 Z M385.601665,183.30044 C385.354271,183.38083 385.135521,183.510866 384.945416,183.689082 L384.85275,183.782198 C384.625806,183.993659 384.4652,184.243568 384.371513,184.531924 C384.226036,184.810377 384.158535,185.109801 384.170755,185.430197 L384.253968,186.049434 C384.36453,186.444395 384.564124,186.786344 384.85275,187.077613 L385.323513,187.441699 C385.641234,187.626218 385.980786,187.730455 386.342169,187.754802 L386.498383,187.760347 L386.969625,187.760556 C387.239056,187.751395 387.492364,187.6847 387.730281,187.559371 C387.977674,187.478981 388.196424,187.349373 388.386529,187.170912 L388.479195,187.077613 C388.706721,186.866152 388.866745,186.616243 388.960432,186.327887 C389.085625,186.089712 389.152248,185.835702 389.161399,185.566223 L389.16119,185.430197 L389.077978,184.810377 C388.981235,184.464786 388.816328,184.159337 388.583256,183.893637 L388.479195,183.782198 L388.008432,183.41753 C387.690711,183.233521 387.351159,183.129346 386.989777,183.105398 L386.833562,183.100047 L386.498383,183.100047 C386.177753,183.087813 385.878652,183.154805 385.601665,183.30044 Z M370.461024,182.512266 C369.224471,182.739456 368.523273,184.240073 368.835757,185.377768 C369.181523,186.637741 370.377442,187.197759 371.578635,187.025617 L371.69874,187.005961 C373.105792,186.746732 374.48433,186.846928 375.824462,187.341502 C377.003405,187.77724 378.37496,186.853918 378.687444,185.713892 C379.044735,184.412504 378.245777,183.284711 377.061596,182.847808 C374.937635,182.062547 372.659469,182.10682 370.461024,182.512266 Z M125.297108,99.7600158 C128.112787,103.890583 129.870679,109.381778 131.604997,114.102219 L131.778389,114.571615 C133.62187,119.532504 135.400178,124.532424 137.058614,129.55914 C140.369083,139.593349 144.683342,150.093587 145.480555,160.69344 C145.627778,162.649601 142.637357,163.433697 141.770315,161.700065 C139.279171,156.715291 137.939621,151.519057 136.46565,146.174858 C135.059763,141.078237 133.595103,135.999092 132.129861,130.919365 C130.6652,125.842551 129.248257,120.75059 127.805709,115.667368 C126.402731,110.722207 124.449269,105.223635 124.128056,100.076916 C124.086159,99.4081632 124.973567,99.2846652 125.297108,99.7600158 Z M188.846774,66.5056869 C192.605311,69.1172026 195.6836,72.9369011 198.864304,76.2037715 C202.090979,79.51841 205.274593,82.8639229 208.428529,86.2484659 C213.698862,91.9049052 218.873761,97.6539679 224.218578,103.241668 C234.869805,114.376872 246.919356,124.623707 261.619492,129.857224 C265.17669,131.123661 263.618343,136.838354 260.052999,135.545121 C245.017101,130.087909 232.56138,119.997777 221.574392,108.582954 C215.883923,102.671364 210.66247,96.3543267 205.571365,89.9248602 C203.188941,86.9160539 200.824297,83.8979432 198.49326,80.8506382 L197.098798,79.0185928 C194.167732,75.1470484 190.581439,71.2883199 188.436529,66.9169584 C188.316074,66.6711276 188.58026,66.3210225 188.846774,66.5056869 Z" id="ðŸ–-Ink" fill="#000000"></path>
                        </g>
                    </g>
                </g>
                <g id="Group" mask="url(#mask-2)">
                    <g transform="translate(178.000000, 61.000000)" id="head/Short-4">
                        <g transform="translate(137.500000, 165.500000) scale(-1, 1) translate(-137.500000, -165.500000) ">
                            <path d="M235.772682,177.469007 C234.521154,166.426917 236.140842,143.346792 236.24937,141.944592 C236.935473,133.080015 232.798889,98.0751249 224.97907,101.300478 C211.861533,90.8736857 194.390129,88.5712801 178.053016,87.4714494 C144.118334,85.186557 108.018027,90.4317686 81.8144927,113.362421 C68.8558507,125.270832 56.2399952,142.59083 57.2540722,160.624784 C45.4803053,177.718862 28.8819363,201.167322 43.5515356,221.151666 C48.5380092,227.536405 56.4631635,229.914118 62.7273503,234.74952 C75.3271376,244.953894 83.232058,259.598455 95.9514636,269.742116 C129.649289,300.14683 186.868463,306.498294 219.976529,271.915508 C245.578402,246.869257 241.438712,209.399123 236.935473,177.469007 C233.907912,156.002157 238.214284,199.01098 235.772682,177.469007 Z" id="ðŸŽ¨-Background" fill="#FFFFFF"></path>
                            <path d="M132.72093,40.6453406 C141.796512,38.8064517 151.115698,37.6622541 160.383721,38.006681 L161.098284,38.0345476 C168.071616,38.3143877 176.902791,38.9334226 182.986047,43.0049561 C183.336047,42.6523564 183.898837,42.4713864 184.409302,42.7159878 C191.638372,46.180688 199.589535,48.6856633 207.201163,51.1748767 C214.777907,53.6518309 222.638372,55.2869825 230.579651,55.9460637 C233.567442,56.1941677 236.124419,59.433531 234.232558,62.3389755 C233.782558,63.0313317 233.344186,63.7306933 232.907558,64.4318062 C233.637791,64.3553317 234.368023,64.2765222 235.098256,64.2023829 C237.501163,63.9595328 239.901744,66.534561 239.759302,68.8836686 C239.670349,70.3612012 239.511628,71.8212206 239.276744,73.2637268 C240.19186,73.2444623 241.101744,73.382233 241.980814,73.7552647 C246.431977,75.6426069 246.122093,80.9660443 245.788953,85.01627 C245.327326,90.6368485 243.233721,96.5901783 239.346512,100.796856 C242.248837,103.823725 244.303488,107.438455 245.52907,111.731531 C246.418023,114.866399 246.912791,118.205587 246.668605,121.468886 L246.59076,122.445901 C246.288782,125.987216 245.688397,129.907901 243.151163,132.455517 C241.848837,133.769009 240.244186,134.247704 238.714535,134.095923 C239.639535,142.257087 240.232558,150.464953 240.790698,158.64363 L241.052421,162.552672 C242.297461,181.455207 243.233121,200.480847 242.988372,219.414529 C242.761047,237.108727 239.27907,254.283365 228.47093,268.65005 C218.627326,281.732431 204.494186,291.376381 188.505814,295.042483 C179.889535,297.021478 171.093023,297.161584 162.372093,295.900632 C158.144767,295.287669 153.889535,294.347792 149.877326,292.865005 C145.436047,291.218762 142.244186,288.796099 139.255814,285.165023 C137.842442,283.442889 138.522674,279.776787 141.337209,280.121214 C145.593816,280.639446 149.479603,281.26406 153.560408,282.528175 L154.144767,282.713171 C158.209302,284.020826 162.418605,284.995729 166.668023,285.410208 C175.372093,286.256681 184.208721,285.404371 192.546512,282.754035 C206.122093,278.434106 217.813953,268.807669 225.30814,256.711866 C234.203488,242.374371 235.209302,226.098744 235.080814,209.61296 C234.943115,191.522717 234.357185,173.421996 233.400634,155.350506 L233.237791,152.338868 C232.731977,143.039344 232.243605,133.733983 231.813953,124.428621 C231.680233,121.50975 231.476744,118.567528 231.109884,115.654494 C227.755814,113.681337 224.75,110.960949 222.790698,107.604247 C218.854651,109.238815 214.715116,110.418039 210.906395,111.357916 C202.084302,113.536561 192.925,114.06546 183.945349,112.70118 C181.523256,113.705856 179.052907,114.589106 176.544767,115.34918 C175.86686,115.650991 175.188953,115.947549 174.511628,116.238268 C168.464535,118.836064 162.330814,121.036893 155.947674,122.64811 L154.379553,123.040756 C151.020337,123.872238 147.371564,124.691054 143.796512,124.94818 C143.209302,125.175852 142.575581,125.368498 141.88314,125.537792 C138.627907,126.331725 135.249419,126.582748 131.912791,126.302536 C128.662209,126.028162 126.313372,122.729838 128.10407,119.641672 C129.412209,117.388304 130.732558,115.140773 132.063953,112.89908 C127.430233,114.83721 122.645349,116.448427 117.819767,117.814459 C112.947674,119.192166 108.005814,120.353877 103.057558,121.422184 C100.412209,121.988445 97.755814,122.49049 95.1162791,123.056751 C93.2267442,123.459556 90.3255814,123.669714 88.7843023,124.918991 C87.0813953,126.290861 86.5988372,129.489944 85.952907,131.463101 C85.1040698,134.02587 84.3075581,136.600314 83.580814,139.203947 C82.1337209,144.399538 80.9476744,149.67102 80.0290698,154.995041 C79.1104651,160.3249 78.4936047,165.707298 78.1505814,171.10721 C77.8081395,176.501284 77.9587209,181.930385 77.4069767,187.301108 C77.1098837,190.149926 74.0639535,191.615199 71.8139535,189.624529 C71.55,189.39102 71.2839793,189.154915 71.0205426,188.916217 L70.627907,188.556222 C68.702907,186.8049 66.8366279,184.948498 65.2965116,182.858586 C65.0174419,182.473295 64.75,182.07049 64.5,181.661849 C64.4593023,181.661849 64.4244186,181.650173 64.3837209,181.620984 L63.956681,181.298326 C59.2545588,177.784112 51.3988953,173.202551 46.8139535,179.040702 C45.3529285,180.900564 44.6048984,183.268765 43.9840604,185.553499 L42.8946918,189.642503 C42.1900646,192.311837 41.526938,194.996031 41.1389535,197.727316 C40.2610465,203.84527 40.702907,210.897263 44.8953488,215.800967 C46.5697674,217.762448 48.877907,219.163506 51.452907,219.531284 C52.8895349,219.729767 54.3081395,219.484582 55.7325581,219.303612 C57.1802326,219.122642 58.575,219.414529 60.0232558,219.274423 C62.3255814,219.046751 63.3313953,221.813841 62.4709302,223.553489 C62.005814,224.487528 61.4587209,225.293136 60.8372093,225.976152 C61.3366279,226.408145 61.8139535,226.875164 62.2732558,227.365535 C63.6337209,227.803365 64.8540698,228.743242 65.7674419,229.986681 C66.505814,230.990773 66.8889535,232.082431 66.9534884,233.232466 C67.0343023,233.518515 67.1040698,233.810402 67.1686047,234.108127 L68.4159209,236.140782 C68.6902558,236.586599 68.9636047,237.026998 69.2377907,237.458991 C72.4122093,242.47945 75.9360465,246.729326 80.3139535,250.734018 C84.5290698,254.586928 89.1040698,258.037034 93.0639535,262.170155 L93.5304242,262.660887 C97.2220886,266.566885 101.113372,271.295178 99.6686047,276.97467 C99.2965116,278.434106 97.2668605,279.4849 95.9418605,278.498321 C91.6802326,275.322589 89.5343023,270.290455 85.9186047,266.437545 C82.197093,262.46788 78.075,258.90102 74.3430233,254.94303 C70.8133721,251.206875 68.0284884,246.974512 65.9302326,242.315993 C65.0924419,243.244194 63.872093,243.903859 62.1802326,244.16072 C59.2732558,244.59855 56.5633721,242.888092 55.2965116,240.360349 C54.4819767,240.722289 53.6511628,241.049203 52.8133721,241.306064 C48.4063953,242.66042 45.6337209,237.739203 47.2965116,234.102289 C48.1854651,232.152483 49.2959302,230.459538 50.6744186,229.035129 C46.3656977,228.439679 41.9819767,226.203824 39.1505814,223.413383 C32.0465116,216.402254 31.0697674,205.865129 32.6686047,196.495552 C33.5174419,191.527633 34.9819767,186.501337 36.8837209,181.836981 C37.2145349,181.025535 37.5697674,180.208251 37.9587209,179.402642 C37.7436047,179.396804 37.5226744,179.303401 37.3831395,179.122431 C36.0982558,177.359432 34.5348837,175.91751 33.580814,173.944353 C32.702907,172.134653 31.7267442,170.301602 31.0343023,168.416011 C29.6104651,164.557263 28.9127907,160.202307 28.4476744,156.121725 C27.4883721,147.767916 27.8598837,139.466646 29.1337209,131.165376 C31.3017442,117.026363 36.5389535,103.495644 44.2546512,91.6228432 C43.8345515,91.4011758 43.4319649,91.1336166 43.0567767,90.8172245 L42.8715116,90.6549455 L42.5703488,90.3817392 C40.3686047,88.3811448 40.5587209,84.6315628 42.5703488,82.6052824 L43.2056837,81.9658207 C44.010186,81.1633133 44.7039535,80.5275131 46.0034884,79.6537198 C46.1953488,79.5247056 46.3912791,79.4032806 46.5895349,79.2900284 C45.9093023,78.0279085 45.6732558,76.5521272 46.147093,74.9239808 C47.7982558,69.2520302 55.9261628,69.4528485 61.077907,71.9263 C66.7773256,66.8188591 73.097093,62.3850937 79.947093,58.794882 C96.2616279,50.248427 114.708721,44.2880919 132.72093,40.6453406 Z M48.3897093,190.033171 C51.4362209,189.034917 55.4827326,191.130667 58.2211047,192.391619 C61.6920349,193.991161 64.6455233,196.355446 67.5059884,198.854 C68.930407,200.103277 69.1856395,202.146487 68.8315698,203.891972 C68.7961047,204.067104 68.7618023,204.248074 68.7205233,204.429044 C68.3426163,206.291284 66.2728488,207.756557 64.4414535,207.704018 C60.6100581,207.598938 58.7850581,204.277263 56.6158721,201.463471 C56.3606395,201.918815 56.0408721,202.339132 55.6449419,202.654371 L55.3775874,202.864499 C54.4775384,203.552659 53.4853224,204.102661 52.2961047,204.049591 C51.4530814,204.008727 50.6455233,203.79273 49.9007558,203.401602 C48.0402907,202.415023 47.2211047,199.998198 47.7263372,198.030878 C48.0402907,196.793277 48.7612209,195.824212 49.7030814,195.152871 L49.3519924,194.911757 C48.6007916,194.386822 47.9156544,193.833465 47.381715,193.016843 L47.2612209,192.823612 L47.3077326,192.823612 C46.7263372,191.81952 47.1048256,190.453489 48.3897093,190.033171 Z" id="ðŸ–-Ink" fill="#000000"></path>
                        </g>
                    </g>
                </g>
                <g id="Group" mask="url(#mask-2)">
                    <g transform="translate(203.000000, 166.000000)" id="face/Smile-Big">
                        <g transform="translate(84.000000, 85.000000) scale(-1, 1) translate(-84.000000, -85.000000) ">
                            <path d="M99.4291134,139.341324 C95.1467856,140.579267 90.5502143,140.689954 86.1851079,139.411479 C82.225885,138.251766 78.1606499,135.699688 75.2467497,132.322672 C72.6581997,129.322716 70.9817407,125.677026 71.0475868,121.785515 C71.055077,121.341072 71.2142982,120.970098 71.4592292,120.682149 C71.7229076,120.37216 72.0911876,120.159298 72.4857112,120.066908 C72.8914511,119.971891 73.3203813,120.005577 73.6856213,120.171166 C74.0162628,120.321069 74.2995426,120.575683 74.4766774,120.94782 C74.9244918,121.534965 75.370567,122.113414 75.8183931,122.67582 C79.4190365,127.113401 82.9059787,130.429701 88.3202863,131.619165 C91.2579298,132.264663 94.1918785,131.978426 96.883881,130.993583 C99.7655401,129.939356 102.370471,128.085775 104.411763,125.713792 C105.334258,124.641826 106.42337,124.204288 107.488333,124.196934 C108.695169,124.1886 109.88802,124.748308 110.786664,125.64289 C111.669995,126.522229 112.261456,127.717166 112.315063,128.967161 C112.362111,130.064234 112.003538,131.210205 111.0496,132.232589 C107.907467,135.600382 103.835238,138.067594 99.4291134,139.341324 Z M99.2968962,83.7625129 C103.686625,86.4256793 110.375223,92.6356638 105.652886,99.2379777 C100.094242,105.059456 92.0910513,98.3847336 88.1472174,95.3660165 C84.4903097,93.0264938 80.3815691,99.0435709 83.7744501,101.775358 C112.272677,122.834028 123.837861,84.4588938 101.51716,80.6312821 C99.0595704,80.2094957 98.1468155,82.9386332 99.2968962,83.7625129 Z M58.2331935,72.0440771 C56.8223057,71.1435062 55.1626467,70.8343845 53.3232627,71.6696186 C51.8858575,72.3220242 49.3648109,74.4969534 47.6103296,77.3560305 C46.4100295,79.312022 45.5588801,81.606656 45.7360778,83.9967954 C45.77723,84.5518782 45.5717297,84.9611575 45.2475918,85.2637749 C44.991595,85.5027753 44.6218159,85.6784184 44.1874877,85.7333257 C43.818745,85.7799418 43.4060066,85.7378882 43.0704073,85.6333442 C42.4320093,85.4344742 42.0941386,85.0211564 41.9668354,84.6837205 C40.7383952,81.4275584 41.2676202,77.7938818 42.6443918,74.5156671 C44.5024283,70.0915183 47.8766739,66.3857426 50.0873773,65.1909539 C53.8703528,63.145702 58.3332013,63.0515702 62.1215918,65.1351687 C65.3464583,66.9085493 67.3628946,69.7716053 69.3683836,72.6900273 C69.7947047,73.3104174 70.2178329,73.9262586 70.6551452,74.531267 C71.5315634,75.7435727 71.6187987,76.9459218 71.2793956,77.9769446 C70.9033985,79.1191312 69.9446843,80.083061 68.745832,80.5875178 C67.6377696,81.0537717 66.35172,81.1194051 65.213716,80.6403386 C64.2523739,80.2356416 63.3701232,79.4467327 62.8118772,78.1081544 C61.8716797,75.8538253 60.305221,73.3666538 58.2331935,72.0440771 L58.2331935,72.0440771 Z M129.889447,77.0595314 C128.923179,77.5620466 128.167226,77.7135576 127.095349,77.3930276 C126.502603,77.2153266 125.916769,76.8747534 125.458112,76.4169724 C125.003558,75.9632861 124.675598,75.3990915 124.548119,74.7731962 C124.234589,73.2285021 123.38781,71.7825683 122.181116,70.8399612 C121.149732,70.0342979 119.847892,69.6072772 118.403906,69.8481857 C116.845735,70.1078002 115.361199,71.1052172 114.338748,72.2811493 C113.997014,72.6746376 113.729143,73.1215288 113.459841,73.5654034 C112.956069,74.3954984 112.466422,75.167092 111.771646,75.7767026 C111.508279,76.0086412 111.111426,76.169283 110.727056,76.169283 C110.570839,76.169283 110.4123,76.1439117 110.261227,76.096918 C108.710346,74.5433057 108.412099,73.3647315 108.462099,72.1957424 C108.514532,70.9698848 108.998754,69.7287159 109.78126,68.5706688 C111.616826,65.8541751 115.101951,63.6269034 117.45374,63.122416 C120.6745,62.4316055 123.8731,63.2608775 126.437589,65.0563118 C129.076298,66.9037082 131.031575,69.7719656 131.641173,73.00435 C131.787822,73.7828424 131.725504,74.623137 131.428457,75.3517086 C131.138197,76.0636332 130.632371,76.6733829 129.889447,77.0595314 Z M65.3364543,43.0817415 C63.4036094,44.9613125 61.1159183,45.2524519 58.8015436,45.5114012 C57.5156193,45.6566344 56.4890672,45.7737127 55.4788954,46.0012127 C52.7023353,46.6267708 49.9577995,47.5689287 47.45386,48.9258171 C44.8363945,50.3442843 41.9839518,52.0549522 39.9318327,54.2464496 C39.4438621,54.7679472 38.9838722,55.3151486 38.5232397,55.8635478 C38.103207,56.3636196 37.6985847,56.8450413 37.2721525,57.3092291 C36.7824248,57.8424086 36.317375,58.4012171 35.8547974,58.9585657 C35.5687617,59.4288547 35.5122588,59.544522 35.4546574,59.6649321 C35.3679777,59.8458651 35.2671503,60.0483507 35.1519913,60.265577 C34.9942773,60.5630756 34.8095435,60.8887377 34.6160685,61.1839989 C34.29417,61.7236845 34.1214454,61.8723408 33.9721927,61.9388331 C33.7245317,62.0489218 33.4896602,62.1031533 33.2617968,62.0737857 C33.0481432,62.0462494 32.8468581,61.9438299 32.6480863,61.7761665 C31.6557495,60.9393468 31.3630846,59.5660202 31.3930811,58.1082306 C31.4386004,55.8960494 32.2560983,53.4467618 33.0097075,51.9411242 C34.7619987,48.4426644 37.1921901,44.8057899 40.1143509,42.1947178 C43.4488007,39.2142265 47.0967995,36.9578416 51.2869013,35.4030387 C53.890804,34.4364757 56.905666,33.5492658 59.7425184,33.6613329 C61.7844827,33.7419987 63.7338286,34.3478302 65.3436802,35.8607489 C66.3322232,36.7894867 66.8067504,38.110521 66.8067504,39.4306198 C66.8067504,40.7770139 66.3139004,42.1313585 65.3364543,43.0817415 Z M133.820419,60.2934771 C133.697501,60.4945502 133.52737,60.6331167 133.338065,60.7163385 C133.139616,60.8035801 132.918071,60.8287082 132.705467,60.7929533 C132.493804,60.7573568 132.292605,60.6615921 132.133007,60.5152383 C131.980035,60.3749609 131.86355,60.1889211 131.811465,59.9610067 C130.528208,54.3356168 128.036442,50.1502429 122.718076,47.4512649 C120.101893,46.1235455 117.09353,45.2799633 114.245628,44.6073817 C113.418043,44.4119127 112.543574,44.2852626 111.66293,44.1569245 C108.902928,43.7547036 106.123011,43.2940654 104.323724,41.0673743 C103.239564,39.7260958 102.784557,38.0107451 103.041816,36.4419834 C103.28404,34.9649085 104.14882,33.6105354 105.720848,32.798903 C109.634542,30.779238 114.498071,32.7610579 118.450271,34.4492963 C118.743443,34.5745288 119.031231,34.6974645 119.312818,34.8160835 C123.177761,36.4443865 126.702795,38.59371 129.600436,41.6674857 C131.899578,44.1060206 134.029766,47.7109495 134.887694,51.4194242 C135.601459,54.5047413 135.433629,57.6544261 133.820419,60.2934771 Z" id="ðŸ–-Ink" fill="#000000"></path>
                        </g>
                    </g>
                </g>
            </g>
        </g>
    </g>
</svg>