<?xml version="1.0" encoding="UTF-8"?>
<svg width="720px" height="746px" viewBox="0 0 720 746" version="1.1" xmlns="http://www.w3.org/2000/svg" xmlns:xlink="http://www.w3.org/1999/xlink">
    <title>darkmode/work</title>
    <defs>
        <rect id="path-1" x="0" y="0" width="720" height="704"></rect>
        <circle id="path-3" cx="349.5" cy="349.5" r="349.5"></circle>
        <path d="M5.87582265,18.840749 L0,47.5641535 L5.87582265,59.9841547 L0,88.5266948 L25.3125417,151.323028 L42.7539462,175.307748 L54.370199,175.307748 C68.8426615,181.858014 82.9511676,185.133147 96.6957173,185.133147 C117.312542,185.133147 205.269289,157.899427 212.124608,154.611227 C216.69482,152.419094 227.238201,147.548685 243.754752,140 L253.698254,134.516311 C263.68621,131.873289 269.411499,130.551778 270.874123,130.551778 C272.336746,130.551778 285.512689,137.475528 310.40195,151.323028 C352.981653,172.208731 379.577262,183.478771 390.188776,185.133147 C406.106049,187.614713 432.87723,190.001031 447.186639,175.307748 C461.496047,160.614466 462.681466,162.389419 475.680401,136.762933 C484.346357,119.67861 484.346357,74.0989319 475.680401,0.0239003601 L5.87582265,18.840749 Z" id="path-5"></path>
    </defs>
    <g id="Design" stroke="none" stroke-width="1" fill="none" fill-rule="evenodd">
        <g id="2.2-Work" transform="translate(-960.000000, -192.000000)">
            <g id="darkmode/work" transform="translate(960.000000, 192.000000)">
                <mask id="mask-2" fill="white">
                    <use xlink:href="#path-1"></use>
                </mask>
                <g id="Mask"></g>
                <g id="illustration" mask="url(#mask-2)">
                    <g transform="translate(20.614287, 0.000000)">
                        <mask id="mask-4" fill="white">
                            <use xlink:href="#path-3"></use>
                        </mask>
                        <use id="Mask" stroke="none" fill="#FBF2E4" fill-rule="evenodd" xlink:href="#path-3"></use>
                        <g id="illustration" stroke="none" stroke-width="1" fill="none" fill-rule="evenodd" mask="url(#mask-4)">
                            <g transform="translate(349.000000, 410.500000) scale(-1, 1) translate(-349.000000, -410.500000) translate(111.000000, 61.000000)" id="Group">
                                <g transform="translate(0.000000, 272.000000)" id="body/Macbook">
                                    <path d="M195.414526,426.484396 C160.392448,425.73001 128.511504,427.848116 94.7870787,421.000388 L94.7440176,419.863275 C87.5103306,419.654726 89.9048782,412.887388 91.3590641,408.154271 C-44.745513,402.092385 44.0296509,69.993572 138.348062,47.6643265 C142.968404,46.8755707 147.987934,46.4590563 153.077294,46.4089581 C159.643533,44.4015338 166.11434,44.0456034 172.978516,42.214688 C173.637235,39.808808 173.744888,38.4177085 176.656751,39.1301518 C187.108384,29.1384683 205.914458,19.9349581 212.260155,39.4324888 C220.611103,27.812613 225.400199,14.226673 228.889313,0.467719372 L229.453763,0.560342838 C230.936463,-3.09799277 233.364179,-7.72683588 236.317357,-8.49054256 C240.920243,-10.0162083 249.599969,-9.66435566 254.60437,-10.283593 C265.454609,-11.0368141 278.058135,-12.8828754 288.45856,-10.3913625 C314.448277,-4.02189727 303.184883,26.6918108 324.256903,46.6868285 C333.927035,42.6795529 349.083969,43.7782187 358.348511,48.5497835 C364.314805,53.332999 361.323221,58.7255488 360.276952,63.7819745 C426.822101,57.7771778 444.527788,135.042624 458.260213,185.977957 C463.76971,202.922808 469.23789,214.410448 478.621724,227.493075 C490.811514,242.786433 497.656487,262.814073 485.167597,278.948032 C502.99723,314.563793 483.641255,348.038729 463.161617,374.925165 C459.151113,379.2307 452.645974,391.210584 446.76813,392.029632 C445.173123,393.488889 442.625533,395.284852 440.828022,396.589153 L442.995626,399.434266 C443.254575,402.061511 443.27145,404.88507 445.066052,407.228036 C446.79257,408.912152 448.638379,410.638793 448.689587,413.153025 C445.938331,416.349408 442.385206,412.779036 439.774189,411.191621 C438.773309,413.160598 438.91704,417.837792 435.71015,417.65604 C356.191382,423.115582 274.752903,426.694692 195.414526,426.484396" id="ðŸŽ¨-Background" fill="#FFFFFF"></path>
                                    <path d="M227.335622,0.582304502 C233.658624,8.82404529 223.355959,34.0252008 218.61458,42.7667588 C251.03146,56.3165814 287.206878,62.2240944 321.833842,54.5293563 C312.840467,45.9171217 302.90324,18.3963018 310.306844,8.72268377 L310.646191,10.4641294 C313.156345,23.2592126 316.226661,36.5328222 325.445739,46.3196551 C338.500243,42.8512267 370.238619,43.1623018 365.041025,63.7742267 C445.628174,63.9635514 446.297367,161.581693 473.165763,216.049534 C486.056751,236.852531 506.016746,258.192628 489.304375,283.189313 C492.588658,291.073375 494.877299,299.432789 495.728629,307.923273 C498.353612,335.628757 481.41837,359.342695 466.14971,380.842989 C460.77056,386.74992 456.270673,396.651892 448.451587,399.178358 C447.648556,399.869247 446.812355,400.524602 445.955206,401.146752 C447.507734,403.410493 446.248487,407.010575 448.066947,408.994115 L448.776853,409.682859 C449.969711,410.854056 451.60838,412.591125 451.935465,414.144912 L452.089916,415.488542 C452.156583,416.014716 452.170854,415.985825 452.132732,415.402028 L452.110707,415.21747 C452.08617,414.96448 452.122466,414.984542 452.219349,415.27815 L452.261333,415.410183 C453.080076,417.760139 451.35414,420.450298 448.997416,421.07536 C441.981944,424.839135 434.523641,413.823933 436.871636,406.453086 C397.969983,423.249973 317.167529,392.871807 278.078502,377.813212 C270.60856,374.810231 263.527915,370.911307 255.973597,368.154157 L255.411065,367.8797 C246.692634,363.582348 238.000876,357.349858 227.775543,359.843094 C184.755734,378.286815 144.752531,408.99528 97.0629174,415.05134 C104.522966,429.314189 82.5681936,431.224912 86.9668293,415.293093 C-42.8112538,398.438535 38.0587022,119.219565 106.997817,65.2853291 C128.945025,44.3594164 143.710335,49.1571954 170.37681,43.1162813 C170.989558,40.8676865 173.238047,38.9820126 175.618629,39.3018256 C185.095568,30.2794846 204.720384,21.489576 212.818203,36.1444723 C217.770815,28.3973059 221.214541,19.7903141 223.622472,10.9374914 C224.582037,7.42187749 224.923035,3.40528131 227.335622,0.582304502 Z M176.531292,419.01277 C169.611835,413.525849 180.12515,404.874002 186.115302,408.362236 C187.965184,410.628307 181.572353,408.367479 182.371893,413.387788 C183.536871,416.723397 180.059395,421.162916 176.531292,419.01277 Z M317.762645,412.201159 C312.839129,402.923084 317.161535,398.788815 324.556992,406.013445 C331.30886,411.112396 322.251476,419.397245 317.762645,412.201159 Z M249.186815,411.334401 C242.243499,407.600336 240.516399,390.564608 251.786776,398.753921 C261.814199,402.323128 259.05945,415.092933 249.186815,411.334401 Z M171.324155,48.0410535 C157.441597,51.8828884 141.952976,50.2273168 129.220267,58.1847793 C98.07234,77.8126003 80.1594245,111.648388 66.6846808,144.877319 L66.2777046,145.884055 C38.9350543,213.274908 17.0506924,291.623291 40.0587169,363.229968 C51.6794015,395.806048 80.2842083,409.774133 112.84191,398.458341 C194.552722,371.96104 262.836609,308.261727 349.732795,297.411384 C350.95771,287.341058 348.177357,277.415783 344.628306,268.001395 C291.319216,270.223775 240.210316,287.501255 189.125856,301.408756 C186.151147,314.454101 171.286331,329.647845 162.380243,339.768852 C154.334213,350.550456 134.431245,353.796938 131.983162,337.22025 L131.591208,337.664411 C125.026872,345.033998 110.625391,357.804633 106.204096,341.897444 C105.208453,333.554341 110.549196,326.337284 113.175925,318.747403 L112.898051,318.95255 C108.043817,322.584824 87.9548959,339.725814 86.5571667,328.311504 C86.6467804,317.556114 90.0480274,306.971407 96.2179883,298.161692 C102.417044,290.026556 110.033626,282.3691 118.329876,276.355565 C118.76747,273.804051 119.563519,271.337587 120.159974,268.814034 C119.249289,259.325081 122.986878,250.418082 123.96681,241.126609 C126.226937,232.409517 126.719812,216.088564 133.024776,209.956191 C137.864497,215.116891 133.069582,234.797339 132.82169,242.326053 C131.093426,251.477135 131.841177,260.82861 128.528379,269.727453 C137.872644,264.612191 147.998991,262.016404 158.173636,261.578918 C159.210013,241.598464 187.465093,248.576098 200.551602,250.126231 C220.526727,243.015778 304.393504,245.506708 318.259186,260.453456 C325.180971,259.648972 331.799,259.015753 338.824947,258.53283 C346.996668,253.329605 369.539167,255.459362 373.014316,265.691633 C382.100795,268.384704 389.994947,272.97743 397.963582,278.223763 C400.430287,237.510798 389.640565,197.406003 392.267876,156.632455 C392.504712,154.263274 393.599279,152.209247 393.55389,149.800455 C393.548653,149.514429 393.964717,149.525497 393.990321,149.800455 C397.915284,161.704609 398.661871,174.4115 400.867881,186.756635 C403.773925,208.287804 408.879578,229.570229 410.572927,251.237712 C411.310203,269.446088 408.355279,288.920899 415.610497,306.182651 C416.643964,308.639794 414.938976,312.641827 412.558394,313.692725 C392.676375,322.052138 369.544986,316.043846 351.388321,305.852935 C312.70081,318.251081 274.853573,332.977629 239.212927,352.63827 C246.071866,354.445884 252.240663,358.465393 258.450194,361.803916 C267.289944,364.866898 276.069177,368.100564 284.900199,371.190343 C328.604331,384.418022 374.341646,402.176096 420.516556,399.483025 C434.712179,397.057339 441.096864,390.969239 449.524042,380.093846 L450.914297,378.288113 C465.970087,358.791912 483.178115,338.147236 485.701206,312.856783 C486.27613,304.648247 485.497538,296.482236 485.022702,288.303992 C482.994174,290.381903 480.81726,292.323501 478.710756,294.333255 C475.787255,297.121862 472.050247,293.605666 473.484648,290.296853 C476.586795,280.894697 482.05323,272.023234 482.998829,262.071745 C483.158272,252.711532 477.029626,244.384741 471.614981,237.269628 C429.48258,185.361457 447.86037,76.3657752 364.411983,65.7828161 C328.804559,140.742707 207.389135,109.581047 172.373733,49.8854614 L171.324155,48.0410535 L171.324155,48.0410535 Z M77.8045276,364.001946 C78.1559995,353.784238 94.4016817,367.087647 92.9015252,372.664279 C91.9914225,380.37125 82.6547232,376.771169 80.5406548,371.567361 C79.2284543,369.187113 78.1234127,366.713658 77.8045276,364.001946 Z M399.479974,353.487901 C401.82215,349.211493 415.772209,361.50886 408.541431,365.547593 C403.645265,368.132312 401.770942,362.076835 400.707798,358.442383 C400.127637,356.921377 399.027832,355.166192 399.479974,353.487901 Z M160.886545,359.097563 C152.10033,353.879192 171.333523,346.850877 172.05567,355.362915 C172.337895,361.140522 164.546741,360.832942 160.886545,359.097563 Z M324.173748,336.617906 C328.586932,330.726704 328.691675,351.593198 326.074839,353.009929 C324.8668,354.918905 322.159186,354.468021 321.438203,352.402925 C319.583665,347.08494 322.375655,341.617243 324.173748,336.617906 Z M115.364477,340.290223 L115.269122,340.644317 C114.779185,342.558769 115.931465,340.033243 115.48726,340.405565 C115.44769,340.363622 115.405793,340.327505 115.364477,340.290223 Z M210.761162,290.387146 C190.658018,267.470703 154.395895,261.783972 127.297646,275.379232 C123.305763,276.550133 119.803265,279.830401 116.209406,281.975305 C117.111944,281.648501 118.02612,281.372378 118.949025,281.137616 C107.045533,291.280176 96.9127853,305.171366 95.0832694,320.988425 C105.935255,314.268854 115.468639,305.84944 122.988624,295.328812 C125.461147,291.009879 132.562741,293.976742 131.050947,298.730249 C126.171656,312.156573 118.705788,325.114538 115.579783,338.989416 C127.274952,330.514078 135.905798,318.04195 140.758321,304.497953 C142.798487,298.688888 151.879729,301.052243 150.068834,307.066943 C147.672735,315.028774 145.115277,322.963194 142.841989,330.963084 L142.229382,333.146565 C141.467084,335.90022 141.019597,338.421442 144.287005,339.177576 C154.816614,339.857397 168.931934,316.564635 175.206639,308.629309 C178.285509,304.875437 181.008252,296.730397 186.821504,297.917026 C194.058101,293.180996 202.784379,292.625838 210.761162,290.387146 Z M442.551282,327.035514 C443.752575,325.991497 445.225282,325.269486 446.819686,325.801599 L446.974358,325.85704 C451.793712,327.544651 448.057869,334.146549 443.925165,331.823972 C442.521023,330.770162 440.995844,329.884122 439.321116,329.306827 C438.317326,328.272241 441.951918,327.804463 442.551282,327.035514 Z M218.257522,307.763833 C219.676211,301.106594 232.813928,310.158644 228.138304,314.847489 C223.701263,318.244265 218.636343,312.022182 218.257522,307.763833 Z M59.9917115,308.692456 C72.3252323,300.654603 73.811423,320.118929 55.5744548,314.43278 C54.0742983,312.160884 58.4839902,309.933843 59.9917115,308.692456 Z M375.692834,268.6317 C382.432482,276.704505 385.092961,287.253677 386.287035,297.498182 C386.558785,299.512596 387.035949,301.737307 386.937607,303.816384 C391.538746,304.49271 396.276634,304.668636 400.779431,303.76279 C399.66857,299.76134 398.981338,295.64047 398.563529,291.485229 C392.484927,282.411043 385.496805,273.891431 375.692834,268.6317 Z M357.712487,294.308789 C357.732854,295.419105 357.696194,296.534665 357.60658,297.655467 C363.566472,298.356259 369.437333,299.853381 375.27037,301.309725 L375.232473,299.53648 C375.219453,298.940982 375.204905,298.344317 375.185411,297.756246 C369.419876,299.312204 362.336321,297.700905 357.712487,294.308789 Z M373.195289,280.612749 C366.53769,277.915018 360.435812,276.227989 353.276027,276.678291 C355.393587,281.236064 356.923421,286.011707 357.482634,290.917255 C360.397988,291.744459 363.701475,291.978056 366.516741,291.832422 C369.372741,291.685622 372.00878,290.311416 374.725705,290.249667 C374.416712,287.015419 373.958169,283.775345 373.195289,280.612749 Z M309.865584,282.889248 C314.077427,281.203384 320.279393,285.850286 315.659633,289.491728 C312.29621,291.77877 307.69507,288.71171 304.964762,286.622148 C303.459951,284.892012 308.549892,283.203235 309.865584,282.889248 Z M226.38304,267.394973 C224.558761,273.0118 212.5546,270.545336 207.054996,273.570453 L207.541325,273.851308 C212.825496,276.933837 218.563355,281.312994 219.546213,286.88027 C226.542482,284.145839 233.595778,281.558208 240.688644,279.110968 C236.485529,274.40989 231.6557,270.538345 226.38304,267.394973 Z M307.915788,261.888246 C276.339181,250.554396 241.924032,250.886442 208.799553,251.942 L209.670705,252.20459 C223.950947,256.54197 240.671791,263.280592 248.114942,276.614794 C267.626868,270.244164 287.592101,264.969287 307.915788,261.888246 Z M369.392526,270.836605 C364.534184,262.223787 355.075284,258.372632 345.820634,259.019831 L344.362375,259.258671 L344.362375,259.258671 C345.369656,259.612272 346.317,260.112089 347.168331,260.822202 C348.688272,262.089804 348.662668,264.876081 347.319044,266.268928 C349.02345,268.797723 350.623695,271.434871 352.037147,274.158816 C357.139309,270.595434 363.258062,270.081636 369.392526,270.836605 Z M454.700746,271.025755 C443.647421,277.519883 435.64678,247.112589 449.577636,253.644 L450.570786,254.709471 C454.606266,259.070127 460.845545,266.440835 454.700746,271.025755 Z M195.509959,256.787547 C191.979529,259.655962 187.868937,261.736204 184.2937,264.574909 C190.171543,266.06504 195.948717,268.042755 201.415152,270.644367 C205.869069,266.821174 211.225524,264.387332 216.89679,262.671176 C210.094878,259.851112 202.804164,257.968933 195.509959,256.787547 Z M50.7678335,257.428294 L50.8198083,257.290568 C52.5311971,252.479391 62.859466,245.343307 67.9901408,247.212087 C68.2298866,247.200436 68.4673046,247.435199 68.4533389,247.676369 L68.5371056,248.272354 C68.8259437,250.387629 68.9749271,252.458187 67.5804782,254.344676 C65.0835149,258.373506 62.6994416,263.393232 57.8969623,264.963753 C53.1643993,266.466088 49.1105255,261.972929 50.7678335,257.428294 L50.7678335,257.428294 Z M183.739142,255.422079 L182.161702,255.338607 C174.916974,254.934305 164.485198,254.274312 160.947005,261.508431 C167.05703,261.466489 173.271798,262.136989 179.435357,263.449446 C180.35768,260.668995 181.871221,257.87398 183.739142,255.422079 Z M223.310861,224.688449 C222.208147,222.581993 226.29779,224.891172 227.248044,224.567281 C229.012969,224.675633 230.606812,225.038554 231.605365,226.627716 C233.205027,229.176318 230.097062,231.908419 227.648978,230.588389 C225.286436,229.281757 225.854377,225.87333 223.310861,224.688449 Z M362.111588,212.899986 L362.262281,212.885039 C364.703941,212.612744 375.165486,210.228938 375.138267,212.819014 L374.938009,213.100547 C371.647811,217.794047 367.358784,227.032708 360.664967,223.739262 C356.364674,221.287362 357.227642,213.96137 362.111588,212.899986 Z M289.249256,212.517492 C291.180605,208.95411 295.318547,217.227891 296.54928,218.699963 C298.300821,222.626266 293.247539,225.688083 290.755231,222.090331 C289.20794,219.284248 288.519544,215.667855 289.249256,212.517492 Z M108.038907,204.341462 C110.81344,202.934634 117.830076,202.808223 115.9092,207.556486 C112.166374,212.524949 105.301034,210.120234 101.108394,206.937831 C98.9646479,204.468455 106.70634,205.47275 108.038907,204.341462 Z M175.488573,185.908227 C175.237189,182.350088 179.201722,181.077826 181.874421,182.239988 C186.643732,184.314404 190.340005,191.945063 188.830538,196.880321 C187.615516,201.775966 180.213658,202.859486 177.86159,198.315694 C176.509238,194.120258 176.327101,190.11473 175.488573,185.908227 Z M421.153627,192.550203 C426.631701,191.389206 432.375706,187.713977 438.002165,188.749146 C439.756033,189.409161 440.393222,191.4061 439.084512,192.856035 C438.344909,196.200383 418.071266,195.4559 421.153627,192.550203 Z M262.777022,179.784942 C265.108142,175.550477 270.46576,171.057948 275.60691,171.425529 C278.760264,171.320672 279.992161,175.860387 277.214137,177.367411 L277.121918,177.406606 C275.377822,178.103007 262.150867,181.501028 262.777022,179.784942 Z M335.581804,172.959467 C327.692308,171.827014 327.73886,152.831048 332.437178,156.540647 C334.038586,161.199199 338.104953,163.97499 340.430254,168.105764 C341.605706,170.938644 338.210278,173.761038 335.581804,172.959467 Z M96.0449873,168.755177 C99.397354,169.268975 116.805687,158.670287 113.615672,167.153199 C111.540009,169.531117 108.912117,169.588205 105.966503,169.807822 L105.886055,169.800047 C104.37559,169.702369 93.3949475,171.007325 96.0449873,168.755177 Z M216.446103,151.503853 C212.962807,151.099571 200.292944,124.59994 206.489673,126.26891 L207.435346,126.889177 C214.301418,131.426674 221.871805,137.226757 224.935546,144.970694 C226.142421,149.587304 220.756289,154.459065 216.446103,151.503853 Z M294.378418,140.602711 C294.880022,140.374939 295.322853,141.08913 294.818921,141.35768 C292.667029,142.501201 290.33009,144.922227 288.977738,146.965186 C284.346921,152.763182 278.868848,142.517512 285.986154,141.747398 C288.582623,141.934392 291.99609,141.683319 294.378418,140.602711 Z M146.599155,108.525108 C153.024573,106.868372 156.131375,115.350118 150.950074,118.856994 C148.358842,121.081122 124.014759,128.04361 122.557082,125.249178 C125.61093,120.278385 140.869698,110.269226 146.599155,108.525108 Z M387.958156,109.712902 C405.746473,108.255393 406.224219,104.996679 393.660263,119.518174 C386.242693,126.035604 378.7262,112.683844 387.958156,109.712902 Z M304.698423,66.3070999 C298.529044,66.8313836 292.334062,66.9886688 286.148971,66.7882759 C287.102135,68.8312349 286.275827,71.8039239 283.568795,71.3914873 C282.295582,79.6617724 281.716585,88.0648761 280.109357,96.2792377 C279.687475,98.1998638 279.089856,100.065149 278.518423,101.93859 C290.296223,102.808901 302.249758,102.320734 313.72904,99.4033864 C309.464824,88.7079975 307.61436,77.3887111 304.698423,66.3070999 Z M254.940712,62.7804177 C254.884849,63.6449034 254.639866,64.5000685 254.235441,65.222415 C248.907499,74.4620426 244.23013,84.1030385 238.598433,93.1469334 C250.752145,97.6540262 263.523842,100.592928 276.410174,101.754508 C274.463113,89.988415 276.190795,77.9887247 275.787533,66.1236005 C268.778463,65.4501872 261.811871,64.329385 254.940712,62.7804177 Z M332.986091,61.4166974 C326.820785,63.0775119 320.547827,64.3235596 314.227152,65.214842 C314.252174,66.2098161 313.680159,67.1383809 312.796243,67.5094573 C314.181181,77.83843 316.910326,88.000797 316.949895,98.5295801 C330.124272,95.2982445 340.539245,86.3230889 349.179983,76.2009171 L347.216221,74.7679523 C341.964874,70.9197973 336.665813,66.813325 332.986091,61.4166974 Z M211.551974,38.0685937 C203.909788,33.3739239 193.330135,35.3737752 187.140971,41.4875064 C184.398443,43.9359116 182.017861,47.2458898 178.894766,49.1694286 C178.50547,49.4088516 178.106282,49.5719621 177.705348,49.6744887 C179.856658,53.7464259 183.144433,57.6500098 185.923622,61.0083386 C200.826262,74.0350426 217.602644,84.9750971 236.040952,92.1729307 C236.795685,81.0988925 240.62347,70.3440849 244.998247,60.1694846 C240.920243,58.9391653 236.899846,57.5230166 232.951607,55.9204559 C232.448839,58.5832349 229.955367,60.6395924 228.378399,62.7064355 C224.800252,66.9012881 222.415597,72.030531 219.008531,76.2982008 C215.213333,80.2798447 208.765221,75.2018652 211.492619,70.4932145 C215.887763,64.0689907 221.567758,58.2535187 228.166585,53.8792445 C223.816829,51.9254136 219.668996,49.6261381 215.657328,47.0536524 C215.487411,47.2307438 215.312257,47.3996797 215.134776,47.5627902 C214.866516,45.9048884 212.587186,46.341209 211.375074,46.6126715 C210.511524,45.8804218 209.339563,46.8025787 208.37767,47.0425842 C208.236849,46.7862677 208.118722,46.5153877 208.034927,46.2311094 C203.095118,51.1156865 199.379641,58.8512022 193.006013,61.7679675 C190.380448,62.4932267 187.33591,59.8834587 188.33679,57.094269 C190.022575,52.8114532 203.699719,43.7221203 208.217646,41.3203181 C207.228986,39.8802854 208.019798,39.1690071 209.62237,39.3827984 C209.897612,39.0379362 210.319494,38.9313318 210.758834,39.2237656 C211.037568,38.8486115 211.298844,38.4606415 211.551974,38.0685937 Z M112.473272,81.0934166 C115.570763,81.1085626 119.228049,79.8159119 122.008983,81.6066322 C126.098626,86.292564 115.963551,87.9032802 111.991453,82.2590742 C111.605067,81.8309091 111.858778,81.090504 112.473272,81.0934166 Z M341.004189,52.2254205 C341.889269,53.2699102 342.189533,54.7938284 341.866575,56.1627915 C345.742076,62.0866156 347.871274,68.7927874 349.818917,75.4546865 L350.364114,74.7771371 C359.19384,63.7304323 364.200996,53.7142582 344.795313,52.6232936 C343.533739,52.4444546 342.268673,52.311636 341.004189,52.2254205 Z M156.083542,67.7696186 C140.053166,56.0489637 174.54629,62.4522161 164.609063,69.616845 C161.551141,70.7283266 158.619493,69.4915995 156.083542,67.7696186 Z" id="ðŸ–-Ink" fill="#000000"></path>
                                </g>
                                <g transform="translate(134.000000, 0.000000)" id="head/Short-4">
                                    <path d="M235.772682,177.469007 C234.521154,166.426917 236.140842,143.346792 236.24937,141.944592 C236.935473,133.080015 232.798889,98.0751249 224.97907,101.300478 C211.861533,90.8736857 194.390129,88.5712801 178.053016,87.4714494 C144.118334,85.186557 108.018027,90.4317686 81.8144927,113.362421 C68.8558507,125.270832 56.2399952,142.59083 57.2540722,160.624784 C45.4803053,177.718862 28.8819363,201.167322 43.5515356,221.151666 C48.5380092,227.536405 56.4631635,229.914118 62.7273503,234.74952 C75.3271376,244.953894 83.232058,259.598455 95.9514636,269.742116 C129.649289,300.14683 186.868463,306.498294 219.976529,271.915508 C245.578402,246.869257 241.438712,209.399123 236.935473,177.469007 C233.907912,156.002157 238.214284,199.01098 235.772682,177.469007 Z" id="ðŸŽ¨-Background" fill="#FFFFFF"></path>
                                    <path d="M132.72093,40.6453406 C141.796512,38.8064517 151.115698,37.6622541 160.383721,38.006681 L161.098284,38.0345476 C168.071616,38.3143877 176.902791,38.9334226 182.986047,43.0049561 C183.336047,42.6523564 183.898837,42.4713864 184.409302,42.7159878 C191.638372,46.180688 199.589535,48.6856633 207.201163,51.1748767 C214.777907,53.6518309 222.638372,55.2869825 230.579651,55.9460637 C233.567442,56.1941677 236.124419,59.433531 234.232558,62.3389755 C233.782558,63.0313317 233.344186,63.7306933 232.907558,64.4318062 C233.637791,64.3553317 234.368023,64.2765222 235.098256,64.2023829 C237.501163,63.9595328 239.901744,66.534561 239.759302,68.8836686 C239.670349,70.3612012 239.511628,71.8212206 239.276744,73.2637268 C240.19186,73.2444623 241.101744,73.382233 241.980814,73.7552647 C246.431977,75.6426069 246.122093,80.9660443 245.788953,85.01627 C245.327326,90.6368485 243.233721,96.5901783 239.346512,100.796856 C242.248837,103.823725 244.303488,107.438455 245.52907,111.731531 C246.418023,114.866399 246.912791,118.205587 246.668605,121.468886 L246.59076,122.445901 C246.288782,125.987216 245.688397,129.907901 243.151163,132.455517 C241.848837,133.769009 240.244186,134.247704 238.714535,134.095923 C239.639535,142.257087 240.232558,150.464953 240.790698,158.64363 L241.052421,162.552672 C242.297461,181.455207 243.233121,200.480847 242.988372,219.414529 C242.761047,237.108727 239.27907,254.283365 228.47093,268.65005 C218.627326,281.732431 204.494186,291.376381 188.505814,295.042483 C179.889535,297.021478 171.093023,297.161584 162.372093,295.900632 C158.144767,295.287669 153.889535,294.347792 149.877326,292.865005 C145.436047,291.218762 142.244186,288.796099 139.255814,285.165023 C137.842442,283.442889 138.522674,279.776787 141.337209,280.121214 C145.593816,280.639446 149.479603,281.26406 153.560408,282.528175 L154.144767,282.713171 C158.209302,284.020826 162.418605,284.995729 166.668023,285.410208 C175.372093,286.256681 184.208721,285.404371 192.546512,282.754035 C206.122093,278.434106 217.813953,268.807669 225.30814,256.711866 C234.203488,242.374371 235.209302,226.098744 235.080814,209.61296 C234.943115,191.522717 234.357185,173.421996 233.400634,155.350506 L233.237791,152.338868 C232.731977,143.039344 232.243605,133.733983 231.813953,124.428621 C231.680233,121.50975 231.476744,118.567528 231.109884,115.654494 C227.755814,113.681337 224.75,110.960949 222.790698,107.604247 C218.854651,109.238815 214.715116,110.418039 210.906395,111.357916 C202.084302,113.536561 192.925,114.06546 183.945349,112.70118 C181.523256,113.705856 179.052907,114.589106 176.544767,115.34918 C175.86686,115.650991 175.188953,115.947549 174.511628,116.238268 C168.464535,118.836064 162.330814,121.036893 155.947674,122.64811 L154.379553,123.040756 C151.020337,123.872238 147.371564,124.691054 143.796512,124.94818 C143.209302,125.175852 142.575581,125.368498 141.88314,125.537792 C138.627907,126.331725 135.249419,126.582748 131.912791,126.302536 C128.662209,126.028162 126.313372,122.729838 128.10407,119.641672 C129.412209,117.388304 130.732558,115.140773 132.063953,112.89908 C127.430233,114.83721 122.645349,116.448427 117.819767,117.814459 C112.947674,119.192166 108.005814,120.353877 103.057558,121.422184 C100.412209,121.988445 97.755814,122.49049 95.1162791,123.056751 C93.2267442,123.459556 90.3255814,123.669714 88.7843023,124.918991 C87.0813953,126.290861 86.5988372,129.489944 85.952907,131.463101 C85.1040698,134.02587 84.3075581,136.600314 83.580814,139.203947 C82.1337209,144.399538 80.9476744,149.67102 80.0290698,154.995041 C79.1104651,160.3249 78.4936047,165.707298 78.1505814,171.10721 C77.8081395,176.501284 77.9587209,181.930385 77.4069767,187.301108 C77.1098837,190.149926 74.0639535,191.615199 71.8139535,189.624529 C71.55,189.39102 71.2839793,189.154915 71.0205426,188.916217 L70.627907,188.556222 C68.702907,186.8049 66.8366279,184.948498 65.2965116,182.858586 C65.0174419,182.473295 64.75,182.07049 64.5,181.661849 C64.4593023,181.661849 64.4244186,181.650173 64.3837209,181.620984 L63.956681,181.298326 C59.2545588,177.784112 51.3988953,173.202551 46.8139535,179.040702 C45.3529285,180.900564 44.6048984,183.268765 43.9840604,185.553499 L42.8946918,189.642503 C42.1900646,192.311837 41.526938,194.996031 41.1389535,197.727316 C40.2610465,203.84527 40.702907,210.897263 44.8953488,215.800967 C46.5697674,217.762448 48.877907,219.163506 51.452907,219.531284 C52.8895349,219.729767 54.3081395,219.484582 55.7325581,219.303612 C57.1802326,219.122642 58.575,219.414529 60.0232558,219.274423 C62.3255814,219.046751 63.3313953,221.813841 62.4709302,223.553489 C62.005814,224.487528 61.4587209,225.293136 60.8372093,225.976152 C61.3366279,226.408145 61.8139535,226.875164 62.2732558,227.365535 C63.6337209,227.803365 64.8540698,228.743242 65.7674419,229.986681 C66.505814,230.990773 66.8889535,232.082431 66.9534884,233.232466 C67.0343023,233.518515 67.1040698,233.810402 67.1686047,234.108127 L68.4159209,236.140782 C68.6902558,236.586599 68.9636047,237.026998 69.2377907,237.458991 C72.4122093,242.47945 75.9360465,246.729326 80.3139535,250.734018 C84.5290698,254.586928 89.1040698,258.037034 93.0639535,262.170155 L93.5304242,262.660887 C97.2220886,266.566885 101.113372,271.295178 99.6686047,276.97467 C99.2965116,278.434106 97.2668605,279.4849 95.9418605,278.498321 C91.6802326,275.322589 89.5343023,270.290455 85.9186047,266.437545 C82.197093,262.46788 78.075,258.90102 74.3430233,254.94303 C70.8133721,251.206875 68.0284884,246.974512 65.9302326,242.315993 C65.0924419,243.244194 63.872093,243.903859 62.1802326,244.16072 C59.2732558,244.59855 56.5633721,242.888092 55.2965116,240.360349 C54.4819767,240.722289 53.6511628,241.049203 52.8133721,241.306064 C48.4063953,242.66042 45.6337209,237.739203 47.2965116,234.102289 C48.1854651,232.152483 49.2959302,230.459538 50.6744186,229.035129 C46.3656977,228.439679 41.9819767,226.203824 39.1505814,223.413383 C32.0465116,216.402254 31.0697674,205.865129 32.6686047,196.495552 C33.5174419,191.527633 34.9819767,186.501337 36.8837209,181.836981 C37.2145349,181.025535 37.5697674,180.208251 37.9587209,179.402642 C37.7436047,179.396804 37.5226744,179.303401 37.3831395,179.122431 C36.0982558,177.359432 34.5348837,175.91751 33.580814,173.944353 C32.702907,172.134653 31.7267442,170.301602 31.0343023,168.416011 C29.6104651,164.557263 28.9127907,160.202307 28.4476744,156.121725 C27.4883721,147.767916 27.8598837,139.466646 29.1337209,131.165376 C31.3017442,117.026363 36.5389535,103.495644 44.2546512,91.6228432 C43.8345515,91.4011758 43.4319649,91.1336166 43.0567767,90.8172245 L42.8715116,90.6549455 L42.5703488,90.3817392 C40.3686047,88.3811448 40.5587209,84.6315628 42.5703488,82.6052824 L43.2056837,81.9658207 C44.010186,81.1633133 44.7039535,80.5275131 46.0034884,79.6537198 C46.1953488,79.5247056 46.3912791,79.4032806 46.5895349,79.2900284 C45.9093023,78.0279085 45.6732558,76.5521272 46.147093,74.9239808 C47.7982558,69.2520302 55.9261628,69.4528485 61.077907,71.9263 C66.7773256,66.8188591 73.097093,62.3850937 79.947093,58.794882 C96.2616279,50.248427 114.708721,44.2880919 132.72093,40.6453406 Z M48.3897093,190.033171 C51.4362209,189.034917 55.4827326,191.130667 58.2211047,192.391619 C61.6920349,193.991161 64.6455233,196.355446 67.5059884,198.854 C68.930407,200.103277 69.1856395,202.146487 68.8315698,203.891972 C68.7961047,204.067104 68.7618023,204.248074 68.7205233,204.429044 C68.3426163,206.291284 66.2728488,207.756557 64.4414535,207.704018 C60.6100581,207.598938 58.7850581,204.277263 56.6158721,201.463471 C56.3606395,201.918815 56.0408721,202.339132 55.6449419,202.654371 L55.3775874,202.864499 C54.4775384,203.552659 53.4853224,204.102661 52.2961047,204.049591 C51.4530814,204.008727 50.6455233,203.79273 49.9007558,203.401602 C48.0402907,202.415023 47.2211047,199.998198 47.7263372,198.030878 C48.0402907,196.793277 48.7612209,195.824212 49.7030814,195.152871 L49.3519924,194.911757 C48.6007916,194.386822 47.9156544,193.833465 47.381715,193.016843 L47.2612209,192.823612 L47.3077326,192.823612 C46.7263372,191.81952 47.1048256,190.453489 48.3897093,190.033171 Z" id="ðŸ–-Ink" fill="#000000"></path>
                                </g>
                                <g transform="translate(216.000000, 105.000000)" id="face/Smile-Big" fill="#000000">
                                    <path d="M97.0469149,128.429488 C97.9386519,126.882082 99.9918561,125.448396 101.870666,125.668294 C110.287524,126.653481 110.272991,136.838396 107.02286,142.784334 C104.141282,148.056655 98.1775723,151.151468 92.2086311,150.699488 C85.9379875,150.2243 80.5951225,146.544642 78.2437038,140.689795 C76.6886865,136.816928 75.9701813,129.667065 80.106818,127.064846 C80.1835516,127.016109 80.3102782,127.028294 80.3713163,127.098498 C82.3547626,129.401331 82.4326588,132.858771 84.1690464,135.422696 C85.7839391,137.807338 88.2928941,139.776553 91.2320221,140.08058 C93.4270671,140.30802 95.64769,139.517782 96.506292,137.550887 C96.9708155,136.487003 96.9179206,135.909339 96.7433034,135.1771 L96.5846316,134.540817 C96.0348461,132.311966 95.7879363,130.614954 97.0469149,128.429488 Z M99.2968962,83.7625129 C103.686625,86.4256793 110.375223,92.6356638 105.652886,99.2379777 C100.094242,105.059456 92.0910513,98.3847336 88.1472174,95.3660165 C84.4903097,93.0264938 80.3815691,99.0435709 83.7744501,101.775358 C112.272677,122.834028 123.837861,84.4588938 101.51716,80.6312821 C99.0595704,80.2094957 98.1468155,82.9386332 99.2968962,83.7625129 Z M52.941218,65.5008259 C55.6356125,61.4660819 61.7859239,62.0602116 63.2700208,66.8480614 C64.0739792,69.4415768 62.9636678,71.7728396 63.021218,74.3628737 C63.0694671,76.5508259 62.9258824,78.9888464 62.2538824,81.1077543 C60.7215363,85.9396997 56.3674879,89.3524642 51.2164567,89.2108942 C46.0822837,89.0699044 41.5602353,85.8265597 39.4099516,81.2586075 C37.2521107,76.6732491 37.7090242,71.9277543 39.2843875,67.2652287 C39.3599585,67.0412696 39.6541038,66.9327713 39.8314048,67.1213379 C41.6935502,69.0964516 43.0567336,71.1815626 44.4672834,73.393459 L45.9127917,75.6603221 C47.0174831,77.3673012 48.6229807,79.5478979 50.6856939,79.410929 L50.9952076,79.3804537 C51.5684343,79.3313458 51.4805973,79.4448874 51.9227543,78.6650922 C52.1273772,78.3042048 52.090173,77.6334881 52.1889965,77.2076177 L52.2232941,77.063727 L52.2232941,77.063727 L52.2045981,76.9862001 C52.1609674,76.7799507 52.1176614,76.3913047 52.0824723,75.7168885 L52.0750588,75.567959 C51.9256609,72.4133857 51.0321799,68.3594949 52.941218,65.5008259 Z M121.240891,68.186884 C120.757819,63.0265427 128.02658,61.8806382 130.443106,65.6989659 C131.703457,67.6901686 132.070407,70.1914653 132.349138,72.5612797 L132.479452,73.6860648 C132.765459,76.1200239 132.878815,78.6520375 131.820241,80.9223788 C130.15303,84.4981809 126.527369,86.3884881 122.616282,86.0891024 C118.881334,85.8024812 115.473666,83.6412184 113.677403,80.3601604 C112.075881,77.4324471 110.48366,71.7162696 112.428739,68.6626519 C112.546165,68.4775666 112.781016,68.4537782 112.94204,68.5965085 C114.780158,70.2251433 115.079535,73.1957918 116.172407,75.3176007 C117.299576,77.5061331 119.009224,79.6389659 121.600144,79.9714232 C124.078871,80.2893754 125.025833,78.9380785 124.393362,76.5795461 C123.577777,73.5346314 121.547826,71.4633003 121.240891,68.186884 Z M54.9045509,34.8215119 L56.09324,34.3671027 C60.1660448,32.8315091 65.7576232,31.0565402 69.0688692,34.3619898 C71.1116097,36.4002491 71.5005093,39.4028089 70.0425716,41.8901468 C68.2759557,44.9031502 65.1072083,44.9774164 62.0471668,45.421273 C58.5668346,45.9260512 55.0272083,46.8857099 51.7869592,48.2538328 C48.136883,49.7954369 44.7495612,51.7170751 41.4308346,53.8632526 C38.2766201,55.9026724 35.1334505,59.2359488 31.3578104,59.8643106 C31.2037619,59.8898396 31.0287862,59.8236962 30.9886754,59.6548567 C30.131236,55.9705563 32.5140457,52.3448567 34.6404955,49.4705222 C37.2133952,45.9904539 40.3309869,43.1341058 43.8153882,40.5730819 C47.1782948,38.1008294 51.0207862,36.3143788 54.9045509,34.8215119 Z M128.886926,47.9205631 L129.249993,47.8570621 C131.719764,47.4466927 133.957844,47.5411902 135.819106,49.4934983 C137.239839,50.982884 137.787438,52.9132253 137.110206,54.8824403 C136.485293,56.6990614 135.087812,58.5446928 133.059604,58.9253072 C126.212296,60.211041 118.627881,59.998686 111.746275,59.0251024 C108.597797,58.5794278 105.42096,58.0341848 102.354246,57.1742657 L100.943327,56.7660243 C98.3831003,56.0361127 95.4520722,55.273551 93.5923931,53.394215 C92.923881,52.7188567 93.3092927,51.7522355 94.109182,51.4395051 C97.3540817,50.1711775 101.801722,50.8459556 105.261708,50.7467406 C109.286732,50.6318601 113.318151,50.3307338 117.323992,49.9158874 C121.238566,49.509744 125.026414,48.6272526 128.886926,47.9205631 Z" id="ðŸ–-Ink"></path>
                                </g>
                            </g>
                        </g>
                    </g>
                </g>
                <g id="overlay" transform="translate(106.301746, 559.000000)">
                    <mask id="mask-6" fill="white">
                        <use xlink:href="#path-5"></use>
                    </mask>
                    <g id="Mask"></g>
                    <g id="illustration" mask="url(#mask-6)">
                        <g transform="translate(263.312542, -12.500000) scale(-1, 1) translate(-263.312542, 12.500000) translate(25.312542, -226.000000)" id="body/Macbook">
                            <path d="M195.414526,426.484396 C160.392448,425.73001 128.511504,427.848116 94.7870787,421.000388 L94.7440176,419.863275 C87.5103306,419.654726 89.9048782,412.887388 91.3590641,408.154271 C-44.745513,402.092385 44.0296509,69.993572 138.348062,47.6643265 C142.968404,46.8755707 147.987934,46.4590563 153.077294,46.4089581 C159.643533,44.4015338 166.11434,44.0456034 172.978516,42.214688 C173.637235,39.808808 173.744888,38.4177085 176.656751,39.1301518 C187.108384,29.1384683 205.914458,19.9349581 212.260155,39.4324888 C220.611103,27.812613 225.400199,14.226673 228.889313,0.467719372 L229.453763,0.560342838 C230.936463,-3.09799277 233.364179,-7.72683588 236.317357,-8.49054256 C240.920243,-10.0162083 249.599969,-9.66435566 254.60437,-10.283593 C265.454609,-11.0368141 278.058135,-12.8828754 288.45856,-10.3913625 C314.448277,-4.02189727 303.184883,26.6918108 324.256903,46.6868285 C333.927035,42.6795529 349.083969,43.7782187 358.348511,48.5497835 C364.314805,53.332999 361.323221,58.7255488 360.276952,63.7819745 C426.822101,57.7771778 444.527788,135.042624 458.260213,185.977957 C463.76971,202.922808 469.23789,214.410448 478.621724,227.493075 C490.811514,242.786433 497.656487,262.814073 485.167597,278.948032 C502.99723,314.563793 483.641255,348.038729 463.161617,374.925165 C459.151113,379.2307 452.645974,391.210584 446.76813,392.029632 C445.173123,393.488889 442.625533,395.284852 440.828022,396.589153 L442.995626,399.434266 C443.254575,402.061511 443.27145,404.88507 445.066052,407.228036 C446.79257,408.912152 448.638379,410.638793 448.689587,413.153025 C445.938331,416.349408 442.385206,412.779036 439.774189,411.191621 C438.773309,413.160598 438.91704,417.837792 435.71015,417.65604 C356.191382,423.115582 274.752903,426.694692 195.414526,426.484396" id="ðŸŽ¨-Background" fill="#FFFFFF"></path>
                            <path d="M227.335622,0.582304502 C233.658624,8.82404529 223.355959,34.0252008 218.61458,42.7667588 C251.03146,56.3165814 287.206878,62.2240944 321.833842,54.5293563 C312.840467,45.9171217 302.90324,18.3963018 310.306844,8.72268377 L310.646191,10.4641294 C313.156345,23.2592126 316.226661,36.5328222 325.445739,46.3196551 C338.500243,42.8512267 370.238619,43.1623018 365.041025,63.7742267 C445.628174,63.9635514 446.297367,161.581693 473.165763,216.049534 C486.056751,236.852531 506.016746,258.192628 489.304375,283.189313 C492.588658,291.073375 494.877299,299.432789 495.728629,307.923273 C498.353612,335.628757 481.41837,359.342695 466.14971,380.842989 C460.77056,386.74992 456.270673,396.651892 448.451587,399.178358 C447.648556,399.869247 446.812355,400.524602 445.955206,401.146752 C447.507734,403.410493 446.248487,407.010575 448.066947,408.994115 L448.776853,409.682859 C449.969711,410.854056 451.60838,412.591125 451.935465,414.144912 L452.089916,415.488542 C452.156583,416.014716 452.170854,415.985825 452.132732,415.402028 L452.110707,415.21747 C452.08617,414.96448 452.122466,414.984542 452.219349,415.27815 L452.261333,415.410183 C453.080076,417.760139 451.35414,420.450298 448.997416,421.07536 C441.981944,424.839135 434.523641,413.823933 436.871636,406.453086 C397.969983,423.249973 317.167529,392.871807 278.078502,377.813212 C270.60856,374.810231 263.527915,370.911307 255.973597,368.154157 L255.411065,367.8797 C246.692634,363.582348 238.000876,357.349858 227.775543,359.843094 C184.755734,378.286815 144.752531,408.99528 97.0629174,415.05134 C104.522966,429.314189 82.5681936,431.224912 86.9668293,415.293093 C-42.8112538,398.438535 38.0587022,119.219565 106.997817,65.2853291 C128.945025,44.3594164 143.710335,49.1571954 170.37681,43.1162813 C170.989558,40.8676865 173.238047,38.9820126 175.618629,39.3018256 C185.095568,30.2794846 204.720384,21.489576 212.818203,36.1444723 C217.770815,28.3973059 221.214541,19.7903141 223.622472,10.9374914 C224.582037,7.42187749 224.923035,3.40528131 227.335622,0.582304502 Z M176.531292,419.01277 C169.611835,413.525849 180.12515,404.874002 186.115302,408.362236 C187.965184,410.628307 181.572353,408.367479 182.371893,413.387788 C183.536871,416.723397 180.059395,421.162916 176.531292,419.01277 Z M317.762645,412.201159 C312.839129,402.923084 317.161535,398.788815 324.556992,406.013445 C331.30886,411.112396 322.251476,419.397245 317.762645,412.201159 Z M249.186815,411.334401 C242.243499,407.600336 240.516399,390.564608 251.786776,398.753921 C261.814199,402.323128 259.05945,415.092933 249.186815,411.334401 Z M171.324155,48.0410535 C157.441597,51.8828884 141.952976,50.2273168 129.220267,58.1847793 C98.07234,77.8126003 80.1594245,111.648388 66.6846808,144.877319 L66.2777046,145.884055 C38.9350543,213.274908 17.0506924,291.623291 40.0587169,363.229968 C51.6794015,395.806048 80.2842083,409.774133 112.84191,398.458341 C194.552722,371.96104 262.836609,308.261727 349.732795,297.411384 C350.95771,287.341058 348.177357,277.415783 344.628306,268.001395 C291.319216,270.223775 240.210316,287.501255 189.125856,301.408756 C186.151147,314.454101 171.286331,329.647845 162.380243,339.768852 C154.334213,350.550456 134.431245,353.796938 131.983162,337.22025 L131.591208,337.664411 C125.026872,345.033998 110.625391,357.804633 106.204096,341.897444 C105.208453,333.554341 110.549196,326.337284 113.175925,318.747403 L112.898051,318.95255 C108.043817,322.584824 87.9548959,339.725814 86.5571667,328.311504 C86.6467804,317.556114 90.0480274,306.971407 96.2179883,298.161692 C102.417044,290.026556 110.033626,282.3691 118.329876,276.355565 C118.76747,273.804051 119.563519,271.337587 120.159974,268.814034 C119.249289,259.325081 122.986878,250.418082 123.96681,241.126609 C126.226937,232.409517 126.719812,216.088564 133.024776,209.956191 C137.864497,215.116891 133.069582,234.797339 132.82169,242.326053 C131.093426,251.477135 131.841177,260.82861 128.528379,269.727453 C137.872644,264.612191 147.998991,262.016404 158.173636,261.578918 C159.210013,241.598464 187.465093,248.576098 200.551602,250.126231 C220.526727,243.015778 304.393504,245.506708 318.259186,260.453456 C325.180971,259.648972 331.799,259.015753 338.824947,258.53283 C346.996668,253.329605 369.539167,255.459362 373.014316,265.691633 C382.100795,268.384704 389.994947,272.97743 397.963582,278.223763 C400.430287,237.510798 389.640565,197.406003 392.267876,156.632455 C392.504712,154.263274 393.599279,152.209247 393.55389,149.800455 C393.548653,149.514429 393.964717,149.525497 393.990321,149.800455 C397.915284,161.704609 398.661871,174.4115 400.867881,186.756635 C403.773925,208.287804 408.879578,229.570229 410.572927,251.237712 C411.310203,269.446088 408.355279,288.920899 415.610497,306.182651 C416.643964,308.639794 414.938976,312.641827 412.558394,313.692725 C392.676375,322.052138 369.544986,316.043846 351.388321,305.852935 C312.70081,318.251081 274.853573,332.977629 239.212927,352.63827 C246.071866,354.445884 252.240663,358.465393 258.450194,361.803916 C267.289944,364.866898 276.069177,368.100564 284.900199,371.190343 C328.604331,384.418022 374.341646,402.176096 420.516556,399.483025 C434.712179,397.057339 441.096864,390.969239 449.524042,380.093846 L450.914297,378.288113 C465.970087,358.791912 483.178115,338.147236 485.701206,312.856783 C486.27613,304.648247 485.497538,296.482236 485.022702,288.303992 C482.994174,290.381903 480.81726,292.323501 478.710756,294.333255 C475.787255,297.121862 472.050247,293.605666 473.484648,290.296853 C476.586795,280.894697 482.05323,272.023234 482.998829,262.071745 C483.158272,252.711532 477.029626,244.384741 471.614981,237.269628 C429.48258,185.361457 447.86037,76.3657752 364.411983,65.7828161 C328.804559,140.742707 207.389135,109.581047 172.373733,49.8854614 L171.324155,48.0410535 L171.324155,48.0410535 Z M77.8045276,364.001946 C78.1559995,353.784238 94.4016817,367.087647 92.9015252,372.664279 C91.9914225,380.37125 82.6547232,376.771169 80.5406548,371.567361 C79.2284543,369.187113 78.1234127,366.713658 77.8045276,364.001946 Z M399.479974,353.487901 C401.82215,349.211493 415.772209,361.50886 408.541431,365.547593 C403.645265,368.132312 401.770942,362.076835 400.707798,358.442383 C400.127637,356.921377 399.027832,355.166192 399.479974,353.487901 Z M160.886545,359.097563 C152.10033,353.879192 171.333523,346.850877 172.05567,355.362915 C172.337895,361.140522 164.546741,360.832942 160.886545,359.097563 Z M324.173748,336.617906 C328.586932,330.726704 328.691675,351.593198 326.074839,353.009929 C324.8668,354.918905 322.159186,354.468021 321.438203,352.402925 C319.583665,347.08494 322.375655,341.617243 324.173748,336.617906 Z M115.364477,340.290223 L115.269122,340.644317 C114.779185,342.558769 115.931465,340.033243 115.48726,340.405565 C115.44769,340.363622 115.405793,340.327505 115.364477,340.290223 Z M210.761162,290.387146 C190.658018,267.470703 154.395895,261.783972 127.297646,275.379232 C123.305763,276.550133 119.803265,279.830401 116.209406,281.975305 C117.111944,281.648501 118.02612,281.372378 118.949025,281.137616 C107.045533,291.280176 96.9127853,305.171366 95.0832694,320.988425 C105.935255,314.268854 115.468639,305.84944 122.988624,295.328812 C125.461147,291.009879 132.562741,293.976742 131.050947,298.730249 C126.171656,312.156573 118.705788,325.114538 115.579783,338.989416 C127.274952,330.514078 135.905798,318.04195 140.758321,304.497953 C142.798487,298.688888 151.879729,301.052243 150.068834,307.066943 C147.672735,315.028774 145.115277,322.963194 142.841989,330.963084 L142.229382,333.146565 C141.467084,335.90022 141.019597,338.421442 144.287005,339.177576 C154.816614,339.857397 168.931934,316.564635 175.206639,308.629309 C178.285509,304.875437 181.008252,296.730397 186.821504,297.917026 C194.058101,293.180996 202.784379,292.625838 210.761162,290.387146 Z M442.551282,327.035514 C443.752575,325.991497 445.225282,325.269486 446.819686,325.801599 L446.974358,325.85704 C451.793712,327.544651 448.057869,334.146549 443.925165,331.823972 C442.521023,330.770162 440.995844,329.884122 439.321116,329.306827 C438.317326,328.272241 441.951918,327.804463 442.551282,327.035514 Z M218.257522,307.763833 C219.676211,301.106594 232.813928,310.158644 228.138304,314.847489 C223.701263,318.244265 218.636343,312.022182 218.257522,307.763833 Z M59.9917115,308.692456 C72.3252323,300.654603 73.811423,320.118929 55.5744548,314.43278 C54.0742983,312.160884 58.4839902,309.933843 59.9917115,308.692456 Z M375.692834,268.6317 C382.432482,276.704505 385.092961,287.253677 386.287035,297.498182 C386.558785,299.512596 387.035949,301.737307 386.937607,303.816384 C391.538746,304.49271 396.276634,304.668636 400.779431,303.76279 C399.66857,299.76134 398.981338,295.64047 398.563529,291.485229 C392.484927,282.411043 385.496805,273.891431 375.692834,268.6317 Z M357.712487,294.308789 C357.732854,295.419105 357.696194,296.534665 357.60658,297.655467 C363.566472,298.356259 369.437333,299.853381 375.27037,301.309725 L375.232473,299.53648 C375.219453,298.940982 375.204905,298.344317 375.185411,297.756246 C369.419876,299.312204 362.336321,297.700905 357.712487,294.308789 Z M373.195289,280.612749 C366.53769,277.915018 360.435812,276.227989 353.276027,276.678291 C355.393587,281.236064 356.923421,286.011707 357.482634,290.917255 C360.397988,291.744459 363.701475,291.978056 366.516741,291.832422 C369.372741,291.685622 372.00878,290.311416 374.725705,290.249667 C374.416712,287.015419 373.958169,283.775345 373.195289,280.612749 Z M309.865584,282.889248 C314.077427,281.203384 320.279393,285.850286 315.659633,289.491728 C312.29621,291.77877 307.69507,288.71171 304.964762,286.622148 C303.459951,284.892012 308.549892,283.203235 309.865584,282.889248 Z M226.38304,267.394973 C224.558761,273.0118 212.5546,270.545336 207.054996,273.570453 L207.541325,273.851308 C212.825496,276.933837 218.563355,281.312994 219.546213,286.88027 C226.542482,284.145839 233.595778,281.558208 240.688644,279.110968 C236.485529,274.40989 231.6557,270.538345 226.38304,267.394973 Z M307.915788,261.888246 C276.339181,250.554396 241.924032,250.886442 208.799553,251.942 L209.670705,252.20459 C223.950947,256.54197 240.671791,263.280592 248.114942,276.614794 C267.626868,270.244164 287.592101,264.969287 307.915788,261.888246 Z M369.392526,270.836605 C364.534184,262.223787 355.075284,258.372632 345.820634,259.019831 L344.362375,259.258671 L344.362375,259.258671 C345.369656,259.612272 346.317,260.112089 347.168331,260.822202 C348.688272,262.089804 348.662668,264.876081 347.319044,266.268928 C349.02345,268.797723 350.623695,271.434871 352.037147,274.158816 C357.139309,270.595434 363.258062,270.081636 369.392526,270.836605 Z M454.700746,271.025755 C443.647421,277.519883 435.64678,247.112589 449.577636,253.644 L450.570786,254.709471 C454.606266,259.070127 460.845545,266.440835 454.700746,271.025755 Z M195.509959,256.787547 C191.979529,259.655962 187.868937,261.736204 184.2937,264.574909 C190.171543,266.06504 195.948717,268.042755 201.415152,270.644367 C205.869069,266.821174 211.225524,264.387332 216.89679,262.671176 C210.094878,259.851112 202.804164,257.968933 195.509959,256.787547 Z M50.7678335,257.428294 L50.8198083,257.290568 C52.5311971,252.479391 62.859466,245.343307 67.9901408,247.212087 C68.2298866,247.200436 68.4673046,247.435199 68.4533389,247.676369 L68.5371056,248.272354 C68.8259437,250.387629 68.9749271,252.458187 67.5804782,254.344676 C65.0835149,258.373506 62.6994416,263.393232 57.8969623,264.963753 C53.1643993,266.466088 49.1105255,261.972929 50.7678335,257.428294 L50.7678335,257.428294 Z M183.739142,255.422079 L182.161702,255.338607 C174.916974,254.934305 164.485198,254.274312 160.947005,261.508431 C167.05703,261.466489 173.271798,262.136989 179.435357,263.449446 C180.35768,260.668995 181.871221,257.87398 183.739142,255.422079 Z M223.310861,224.688449 C222.208147,222.581993 226.29779,224.891172 227.248044,224.567281 C229.012969,224.675633 230.606812,225.038554 231.605365,226.627716 C233.205027,229.176318 230.097062,231.908419 227.648978,230.588389 C225.286436,229.281757 225.854377,225.87333 223.310861,224.688449 Z M362.111588,212.899986 L362.262281,212.885039 C364.703941,212.612744 375.165486,210.228938 375.138267,212.819014 L374.938009,213.100547 C371.647811,217.794047 367.358784,227.032708 360.664967,223.739262 C356.364674,221.287362 357.227642,213.96137 362.111588,212.899986 Z M289.249256,212.517492 C291.180605,208.95411 295.318547,217.227891 296.54928,218.699963 C298.300821,222.626266 293.247539,225.688083 290.755231,222.090331 C289.20794,219.284248 288.519544,215.667855 289.249256,212.517492 Z M108.038907,204.341462 C110.81344,202.934634 117.830076,202.808223 115.9092,207.556486 C112.166374,212.524949 105.301034,210.120234 101.108394,206.937831 C98.9646479,204.468455 106.70634,205.47275 108.038907,204.341462 Z M175.488573,185.908227 C175.237189,182.350088 179.201722,181.077826 181.874421,182.239988 C186.643732,184.314404 190.340005,191.945063 188.830538,196.880321 C187.615516,201.775966 180.213658,202.859486 177.86159,198.315694 C176.509238,194.120258 176.327101,190.11473 175.488573,185.908227 Z M421.153627,192.550203 C426.631701,191.389206 432.375706,187.713977 438.002165,188.749146 C439.756033,189.409161 440.393222,191.4061 439.084512,192.856035 C438.344909,196.200383 418.071266,195.4559 421.153627,192.550203 Z M262.777022,179.784942 C265.108142,175.550477 270.46576,171.057948 275.60691,171.425529 C278.760264,171.320672 279.992161,175.860387 277.214137,177.367411 L277.121918,177.406606 C275.377822,178.103007 262.150867,181.501028 262.777022,179.784942 Z M335.581804,172.959467 C327.692308,171.827014 327.73886,152.831048 332.437178,156.540647 C334.038586,161.199199 338.104953,163.97499 340.430254,168.105764 C341.605706,170.938644 338.210278,173.761038 335.581804,172.959467 Z M96.0449873,168.755177 C99.397354,169.268975 116.805687,158.670287 113.615672,167.153199 C111.540009,169.531117 108.912117,169.588205 105.966503,169.807822 L105.886055,169.800047 C104.37559,169.702369 93.3949475,171.007325 96.0449873,168.755177 Z M216.446103,151.503853 C212.962807,151.099571 200.292944,124.59994 206.489673,126.26891 L207.435346,126.889177 C214.301418,131.426674 221.871805,137.226757 224.935546,144.970694 C226.142421,149.587304 220.756289,154.459065 216.446103,151.503853 Z M294.378418,140.602711 C294.880022,140.374939 295.322853,141.08913 294.818921,141.35768 C292.667029,142.501201 290.33009,144.922227 288.977738,146.965186 C284.346921,152.763182 278.868848,142.517512 285.986154,141.747398 C288.582623,141.934392 291.99609,141.683319 294.378418,140.602711 Z M146.599155,108.525108 C153.024573,106.868372 156.131375,115.350118 150.950074,118.856994 C148.358842,121.081122 124.014759,128.04361 122.557082,125.249178 C125.61093,120.278385 140.869698,110.269226 146.599155,108.525108 Z M387.958156,109.712902 C405.746473,108.255393 406.224219,104.996679 393.660263,119.518174 C386.242693,126.035604 378.7262,112.683844 387.958156,109.712902 Z M304.698423,66.3070999 C298.529044,66.8313836 292.334062,66.9886688 286.148971,66.7882759 C287.102135,68.8312349 286.275827,71.8039239 283.568795,71.3914873 C282.295582,79.6617724 281.716585,88.0648761 280.109357,96.2792377 C279.687475,98.1998638 279.089856,100.065149 278.518423,101.93859 C290.296223,102.808901 302.249758,102.320734 313.72904,99.4033864 C309.464824,88.7079975 307.61436,77.3887111 304.698423,66.3070999 Z M254.940712,62.7804177 C254.884849,63.6449034 254.639866,64.5000685 254.235441,65.222415 C248.907499,74.4620426 244.23013,84.1030385 238.598433,93.1469334 C250.752145,97.6540262 263.523842,100.592928 276.410174,101.754508 C274.463113,89.988415 276.190795,77.9887247 275.787533,66.1236005 C268.778463,65.4501872 261.811871,64.329385 254.940712,62.7804177 Z M332.986091,61.4166974 C326.820785,63.0775119 320.547827,64.3235596 314.227152,65.214842 C314.252174,66.2098161 313.680159,67.1383809 312.796243,67.5094573 C314.181181,77.83843 316.910326,88.000797 316.949895,98.5295801 C330.124272,95.2982445 340.539245,86.3230889 349.179983,76.2009171 L347.216221,74.7679523 C341.964874,70.9197973 336.665813,66.813325 332.986091,61.4166974 Z M211.551974,38.0685937 C203.909788,33.3739239 193.330135,35.3737752 187.140971,41.4875064 C184.398443,43.9359116 182.017861,47.2458898 178.894766,49.1694286 C178.50547,49.4088516 178.106282,49.5719621 177.705348,49.6744887 C179.856658,53.7464259 183.144433,57.6500098 185.923622,61.0083386 C200.826262,74.0350426 217.602644,84.9750971 236.040952,92.1729307 C236.795685,81.0988925 240.62347,70.3440849 244.998247,60.1694846 C240.920243,58.9391653 236.899846,57.5230166 232.951607,55.9204559 C232.448839,58.5832349 229.955367,60.6395924 228.378399,62.7064355 C224.800252,66.9012881 222.415597,72.030531 219.008531,76.2982008 C215.213333,80.2798447 208.765221,75.2018652 211.492619,70.4932145 C215.887763,64.0689907 221.567758,58.2535187 228.166585,53.8792445 C223.816829,51.9254136 219.668996,49.6261381 215.657328,47.0536524 C215.487411,47.2307438 215.312257,47.3996797 215.134776,47.5627902 C214.866516,45.9048884 212.587186,46.341209 211.375074,46.6126715 C210.511524,45.8804218 209.339563,46.8025787 208.37767,47.0425842 C208.236849,46.7862677 208.118722,46.5153877 208.034927,46.2311094 C203.095118,51.1156865 199.379641,58.8512022 193.006013,61.7679675 C190.380448,62.4932267 187.33591,59.8834587 188.33679,57.094269 C190.022575,52.8114532 203.699719,43.7221203 208.217646,41.3203181 C207.228986,39.8802854 208.019798,39.1690071 209.62237,39.3827984 C209.897612,39.0379362 210.319494,38.9313318 210.758834,39.2237656 C211.037568,38.8486115 211.298844,38.4606415 211.551974,38.0685937 Z M112.473272,81.0934166 C115.570763,81.1085626 119.228049,79.8159119 122.008983,81.6066322 C126.098626,86.292564 115.963551,87.9032802 111.991453,82.2590742 C111.605067,81.8309091 111.858778,81.090504 112.473272,81.0934166 Z M341.004189,52.2254205 C341.889269,53.2699102 342.189533,54.7938284 341.866575,56.1627915 C345.742076,62.0866156 347.871274,68.7927874 349.818917,75.4546865 L350.364114,74.7771371 C359.19384,63.7304323 364.200996,53.7142582 344.795313,52.6232936 C343.533739,52.4444546 342.268673,52.311636 341.004189,52.2254205 Z M156.083542,67.7696186 C140.053166,56.0489637 174.54629,62.4522161 164.609063,69.616845 C161.551141,70.7283266 158.619493,69.4915995 156.083542,67.7696186 Z" id="ðŸ–-Ink" fill="#000000"></path>
                        </g>
                    </g>
                </g>
            </g>
        </g>
    </g>
</svg>