<?xml version="1.0" encoding="UTF-8"?>
<svg width="24px" height="32px" viewBox="0 0 24 32" version="1.1" xmlns="http://www.w3.org/2000/svg" xmlns:xlink="http://www.w3.org/1999/xlink">
    <title>icon/arrow</title>
    <g id="icon/arrow" stroke="none" stroke-width="1" fill="none" fill-rule="evenodd">
        <g>
            <rect id="Rectangle" x="0" y="0" width="24" height="32"></rect>
            <path d="M12.0469085,29.019282 C12.1876339,29.019282 12.3127232,28.9567373 12.4065401,28.8629204 L17.8791956,22.8586355 C18.0042849,22.7022739 18.0355572,22.4990039 17.9573764,22.31137 C17.8791956,22.1237361 17.7071979,22.0142829 17.5039278,22.0142829 L14.0014283,22.0142829 L14.0014283,2.50035707 C14.0014283,2.21890622 13.7825221,2 13.5010712,2 L10.4989288,2 C10.2174779,2 9.99857171,2.21890622 9.99857171,2.50035707 L9.99857171,22.0142829 L6.49607219,22.0142829 C6.29280213,22.0142829 6.12080438,22.1393722 6.04262359,22.31137 C5.9644428,22.4990039 5.99571512,22.7022739 6.12080438,22.8586355 L11.6716407,28.8629204 C11.7654576,28.9567373 11.906183,29.019282 12.0469085,29.019282 Z" id="" fill="#FFFFFF" fill-rule="nonzero"></path>
        </g>
    </g>
</svg>