<?xml version="1.0" encoding="UTF-8"?>
<svg width="18px" height="18px" viewBox="0 0 18 18" version="1.1" xmlns="http://www.w3.org/2000/svg" xmlns:xlink="http://www.w3.org/1999/xlink">
    <title>icon/moon</title>
    <g id="icon/moon" stroke="none" stroke-width="1" fill="none" fill-rule="evenodd">
        <g>
            <rect id="Rectangle" x="0" y="0" width="18" height="18"></rect>
            <path d="M9.66328491,16.1944442 C12.0415457,16.1944442 13.9793879,15.2915859 15.4768114,13.4858694 C15.6970207,13.1775763 15.9612719,12.7811995 16.269565,12.296739 C15.8291463,12.4288646 15.3667067,12.4949274 14.8822462,12.4949274 L14.8822462,12.4949274 L14.5519322,12.4949274 C12.5700481,12.4949274 10.8744363,11.7902575 9.4650965,10.3809177 C8.05575675,8.97157798 7.35108688,7.27596609 7.35108688,5.29408206 C7.35108688,4.19303538 7.59331715,3.1580515 8.07777769,2.18913042 C8.20990329,1.92487921 8.45213356,1.52850241 8.8044685,1 C8.18788235,1.08808373 7.70342181,1.17616747 7.35108688,1.2642512 C5.76557965,1.74871174 4.47735503,2.66258049 3.48641302,4.00585744 C2.49547101,5.34913439 2,6.87958928 2,8.59722211 C2,10.7112317 2.74871174,12.5059378 4.24613523,13.9813404 C5.74355872,15.4567429 7.54927528,16.1944442 9.66328491,16.1944442 Z" id="" fill="#FFFFFF" fill-rule="nonzero"></path>
        </g>
    </g>
</svg>