<?xml version="1.0" encoding="UTF-8"?>
<svg width="24px" height="24px" viewBox="0 0 24 24" version="1.1" xmlns="http://www.w3.org/2000/svg" xmlns:xlink="http://www.w3.org/1999/xlink">
    <title>icon/rocket</title>
    <g id="icon/rocket" stroke="none" stroke-width="1" fill="none" fill-rule="evenodd">
        <g id="icon/download" fill="#FFFFFF" fill-rule="nonzero">
            <path d="M10.5016176,21.2143074 C10.568582,21.2143074 10.6243856,21.2031467 10.6801893,21.1696645 L14.9659087,18.6696615 C15.0663552,18.6026972 15.1333196,18.4910899 15.1444803,18.3794826 L15.3676949,14.1495669 C16.1601065,13.4799232 16.8967146,12.8214403 17.5440368,12.1852788 C20.1891292,9.52902564 21.2159161,7.06250484 21.2159161,3.35714328 C21.2159161,3.15625019 21.0373445,3 20.8364514,3 C16.9525182,3 14.8208192,3.89285821 12.0306373,6.67187938 C11.3944758,7.31920158 10.7359929,8.0558096 10.0663493,8.84822126 L5.83643351,9.07143581 C5.72482623,9.08259654 5.61321896,9.1495609 5.54625459,9.25000745 L3.04625161,13.5357268 C2.96812652,13.6696556 2.99044797,13.8482272 3.10205525,13.9709952 L3.81634182,14.6852818 C3.88330618,14.7522462 3.98375273,14.7857283 4.07303855,14.7857283 C4.10652073,14.7857283 4.14000292,14.7857283 4.1734851,14.7745676 L7.25384591,13.8259058 L10.3900104,16.9620702 L9.44134852,20.042431 C9.40786634,20.165199 9.44134852,20.2991278 9.53063434,20.3995743 L10.2449209,21.1138609 C10.323046,21.1808252 10.4123318,21.2143074 10.5016176,21.2143074 Z M17.6444833,7.64286268 C17.0529647,7.64286268 16.5730535,7.16295139 16.5730535,6.57143283 C16.5730535,5.97991427 17.0529647,5.50000298 17.6444833,5.50000298 C18.2360019,5.50000298 18.7159131,5.97991427 18.7159131,6.57143283 C18.7159131,7.16295139 18.2360019,7.64286268 17.6444833,7.64286268 Z" id=""></path>
        </g>
    </g>
</svg>