<?xml version="1.0" encoding="UTF-8"?>
<svg width="18px" height="18px" viewBox="0 0 18 18" version="1.1" xmlns="http://www.w3.org/2000/svg" xmlns:xlink="http://www.w3.org/1999/xlink">
    <title>icon/sun</title>
    <g id="icon/sun" stroke="none" stroke-width="1" fill="none" fill-rule="evenodd">
        <g id="icon/moon">
            <rect id="Rectangle" x="0" y="0" width="18" height="18"></rect>
            <path d="M9.66703176,3.88608981 L9.66703176,2 L8.40963855,2 L8.40963855,3.88608981 L9.66703176,3.88608981 Z M13.2858708,5.63417306 L14.4359255,4.48411829 L13.5312158,3.59474261 L12.3964951,4.72946331 L13.2858708,5.63417306 Z M4.79079956,5.63417306 L5.68017525,4.72946331 L4.54545455,3.59474261 L3.6407448,4.48411829 L4.79079956,5.63417306 Z M9.03833516,12.8105148 C9.73347937,12.8105148 10.3749544,12.6392844 10.9627601,12.2968237 C11.5505659,11.9543629 12.0156992,11.4892296 12.3581599,10.9014239 C12.7006207,10.3136181 12.871851,9.67214312 12.871851,8.9769989 C12.871851,8.28185469 12.7006207,7.6403797 12.3581599,7.05257393 C12.0156992,6.46476816 11.5505659,5.9996349 10.9627601,5.65717415 C10.3749544,5.3147134 9.73347937,5.14348302 9.03833516,5.14348302 C8.34319095,5.14348302 7.70171595,5.3147134 7.11391019,5.65717415 C6.52610442,5.9996349 6.06097116,6.46476816 5.71851041,7.05257393 C5.37604965,7.6403797 5.20481928,8.28185469 5.20481928,8.9769989 C5.20481928,9.67214312 5.37604965,10.3136181 5.71851041,10.9014239 C6.06097116,11.4892296 6.52610442,11.9543629 7.11391019,12.2968237 C7.70171595,12.6392844 8.34319095,12.8105148 9.03833516,12.8105148 Z M16.0766703,9.63636364 L16.0766703,8.3483023 L14.1599124,8.3483023 L14.1599124,9.63636364 L16.0766703,9.63636364 Z M3.91675794,9.63636364 L3.91675794,8.3483023 L2,8.3483023 L2,9.63636364 L3.91675794,9.63636364 Z M4.54545455,14.4052574 L5.68017525,13.2398686 L4.79079956,12.3351588 L3.6407448,13.5005476 L4.54545455,14.4052574 Z M13.5312158,14.4052574 L14.4359255,13.5005476 L13.2858708,12.3658269 L12.3964951,13.2398686 L13.5312158,14.4052574 Z M9.66703176,16 L9.66703176,14.0985761 L8.40963855,14.0985761 L8.40963855,16 L9.66703176,16 Z" id="" fill="#FFFFFF" fill-rule="nonzero"></path>
        </g>
    </g>
</svg>